<svg width="85" height="85" viewBox="0 0 85 85" fill="none" xmlns="http://www.w3.org/2000/svg">
<path d="M82.842 42.1311C84.3284 49.6156 85.3817 54.918 83.4523 61.0621C78.6075 76.4855 58.6049 85.6353 41.6768 84.0275C26.0333 82.5411 16.201 72.1707 13.3184 69.1307C9.00187 64.578 0.135868 55.2281 0.511574 42.1311C0.869233 29.6772 9.36773 21.3609 16.3683 14.5113C23.0211 8.00139 30.463 0.718702 41.6768 0.234721C54.0111 -0.296838 62.9247 7.74217 66.9853 11.4073C78.8684 22.1254 81.6312 36.0395 82.842 42.1311Z" fill="#4648CC"/>
<path d="M24.9045 38.1471L24.9045 38.1471C25.026 38.6753 24.7864 39.2204 24.3125 39.4859M24.9045 38.1471L44.9186 29.0301C42.7654 26.1595 39.3357 24.4472 35.7389 24.4472C29.3668 24.4472 24.1801 29.6179 24.1801 35.972C24.1801 36.8387 24.2584 37.587 24.4172 38.2592C24.4892 38.572 24.3474 38.8933 24.0679 39.0498C21.3476 40.5785 19.6582 43.4763 19.6582 46.6112C19.6582 51.3991 23.5599 55.2949 28.3549 55.2949H32.3561M24.9045 38.1471L24.9038 38.1443C24.7558 37.5174 24.6801 36.8088 24.6801 35.972C24.6801 29.8954 29.6415 24.9472 35.7389 24.9472C39.1783 24.9472 42.4592 26.5853 44.5178 29.329M24.9045 38.1471L44.5178 29.329M24.3125 39.4859C24.3124 39.4859 24.3123 39.486 24.3121 39.4861L24.068 39.0499L24.3129 39.4856C24.3127 39.4857 24.3126 39.4858 24.3125 39.4859ZM24.3125 39.4859C21.7509 40.9255 20.1582 43.656 20.1582 46.6112C20.1582 51.1223 23.8353 54.7949 28.3549 54.7949H31.8997M31.8997 54.7949C31.8823 54.9491 31.8681 55.1042 31.8573 55.2602L32.3561 55.2949M31.8997 54.7949C32.5088 49.4025 37.0895 45.1983 42.6489 45.1983C48.2081 45.1983 52.7907 49.4041 53.3982 54.7949H54.9872L54.9878 54.7945H55.1482C60.6582 54.7945 65.14 50.3191 65.1421 44.8164M31.8997 54.7949H32.3561V55.2949M32.3561 55.2949C32.7284 49.9407 37.1956 45.6983 42.6489 45.6983C48.1022 45.6983 52.5713 49.9427 52.9417 55.2949H55.1476L55.1482 55.2945L65.1421 44.8164M44.5178 29.329C44.723 29.6052 45.0379 29.7786 45.3765 29.8105C45.7434 29.8561 46.083 29.7139 46.3232 29.494L46.3245 29.4927C47.5383 28.3731 49.1172 27.7545 50.7806 27.7545C54.3765 27.7545 57.3446 30.6586 57.4025 34.2141C57.4025 34.2144 57.4025 34.2148 57.4025 34.2152L57.9024 34.2071C57.9067 34.5157 58.1078 34.7863 58.3999 34.8793M44.5178 29.329L58.2466 35.3552M58.3999 34.8793L58.2458 35.355C58.2461 35.355 58.2463 35.3551 58.2466 35.3552M58.3999 34.8793L58.2482 35.3557C58.2477 35.3556 58.2471 35.3554 58.2466 35.3552M58.3999 34.8793C62.7313 36.2829 65.6421 40.276 65.6421 44.8164M58.2466 35.3552C62.3722 36.6925 65.142 40.4938 65.1421 44.8162L65.6421 44.8164M65.6421 44.8164H65.1421M65.6421 44.8164H65.1421M59.7849 33.3251C59.2793 28.8364 55.4078 25.3215 50.7784 25.3215C48.9368 25.3215 47.1619 25.8753 45.6684 26.9035C43.1467 24.1337 39.5215 22.5143 35.7389 22.5143C28.2957 22.5143 22.2407 28.5498 22.2407 35.9763C22.2407 36.6391 22.2807 37.252 22.3634 37.8302C19.4759 39.7871 17.7188 43.0746 17.7188 46.6131C17.7188 52.4703 22.4907 57.232 28.3528 57.232H31.8976C32.507 62.6226 37.0875 66.8265 42.6467 66.8265C48.2042 66.8265 52.7867 62.6225 53.3959 57.232H55.1455C62.0007 57.232 67.577 51.6652 67.5772 44.8184L59.7849 33.3251ZM59.7849 33.3251C64.4788 35.1983 67.5792 39.7165 67.5772 44.8181L59.7849 33.3251ZM42.6491 64.3916C38.0217 64.3916 34.2599 60.6324 34.2599 56.0136C34.2599 51.3947 38.0217 47.6377 42.6491 47.6377C47.2764 47.6377 51.0382 51.395 51.0382 56.0136C51.0382 60.6326 47.2763 64.3916 42.6491 64.3916Z" fill="white"/>
<path d="M24.9045 38.1471L24.9045 38.1471C25.026 38.6753 24.7864 39.2204 24.3125 39.4859M24.9045 38.1471L44.9186 29.0301C42.7654 26.1595 39.3357 24.4472 35.7389 24.4472C29.3668 24.4472 24.1801 29.6179 24.1801 35.972C24.1801 36.8387 24.2584 37.587 24.4172 38.2592C24.4892 38.572 24.3474 38.8933 24.0679 39.0498C21.3476 40.5785 19.6582 43.4763 19.6582 46.6112C19.6582 51.3991 23.5599 55.2949 28.3549 55.2949H32.3561M24.9045 38.1471L24.9038 38.1443C24.7558 37.5174 24.6801 36.8088 24.6801 35.972C24.6801 29.8954 29.6415 24.9472 35.7389 24.9472C39.1783 24.9472 42.4592 26.5853 44.5178 29.329M24.9045 38.1471L44.5178 29.329M24.3125 39.4859C24.3124 39.4859 24.3123 39.486 24.3121 39.4861L24.068 39.0499L24.3129 39.4856C24.3127 39.4857 24.3126 39.4858 24.3125 39.4859ZM24.3125 39.4859C21.7509 40.9255 20.1582 43.656 20.1582 46.6112C20.1582 51.1223 23.8353 54.7949 28.3549 54.7949H31.8997M31.8997 54.7949C31.8823 54.9491 31.8681 55.1042 31.8573 55.2602L32.3561 55.2949M31.8997 54.7949C32.5088 49.4025 37.0895 45.1983 42.6489 45.1983C48.2081 45.1983 52.7907 49.4041 53.3982 54.7949H54.9872L54.9878 54.7945H55.1482C60.6582 54.7945 65.14 50.3191 65.1421 44.8164M31.8997 54.7949H32.3561V55.2949M32.3561 55.2949C32.7284 49.9407 37.1956 45.6983 42.6489 45.6983C48.1022 45.6983 52.5713 49.9427 52.9417 55.2949H55.1476L55.1482 55.2945L65.1421 44.8164M44.5178 29.329C44.723 29.6052 45.0379 29.7786 45.3765 29.8105C45.7434 29.8561 46.083 29.7139 46.3232 29.494L46.3245 29.4927C47.5383 28.3731 49.1172 27.7545 50.7806 27.7545C54.3765 27.7545 57.3446 30.6586 57.4025 34.2141C57.4025 34.2144 57.4025 34.2148 57.4025 34.2152L57.9024 34.2071C57.9067 34.5157 58.1078 34.7863 58.3999 34.8793M44.5178 29.329L58.2466 35.3552M58.3999 34.8793L58.2458 35.355C58.2461 35.355 58.2463 35.3551 58.2466 35.3552M58.3999 34.8793L58.2482 35.3557C58.2477 35.3556 58.2471 35.3554 58.2466 35.3552M58.3999 34.8793C62.7313 36.2829 65.6421 40.276 65.6421 44.8164M58.2466 35.3552C62.3722 36.6925 65.142 40.4938 65.1421 44.8162L65.6421 44.8164M65.6421 44.8164H65.1421M65.6421 44.8164H65.1421M59.7849 33.3251C59.2793 28.8364 55.4078 25.3215 50.7784 25.3215C48.9368 25.3215 47.1619 25.8753 45.6684 26.9035C43.1467 24.1337 39.5215 22.5143 35.7389 22.5143C28.2957 22.5143 22.2407 28.5498 22.2407 35.9763C22.2407 36.6391 22.2807 37.252 22.3634 37.8302C19.4759 39.7871 17.7188 43.0746 17.7188 46.6131C17.7188 52.4703 22.4907 57.232 28.3528 57.232H31.8976C32.507 62.6226 37.0875 66.8265 42.6467 66.8265C48.2042 66.8265 52.7867 62.6225 53.3959 57.232H55.1455C62.0007 57.232 67.577 51.6652 67.5772 44.8184L59.7849 33.3251ZM59.7849 33.3251C64.4788 35.1983 67.5792 39.7165 67.5772 44.8181L59.7849 33.3251ZM42.6491 64.3916C38.0217 64.3916 34.2599 60.6324 34.2599 56.0136C34.2599 51.3947 38.0217 47.6377 42.6491 47.6377C47.2764 47.6377 51.0382 51.395 51.0382 56.0136C51.0382 60.6326 47.2763 64.3916 42.6491 64.3916Z" stroke="white"/>
<path d="M24.9045 38.1471L24.9045 38.1471C25.026 38.6753 24.7864 39.2204 24.3125 39.4859M24.9045 38.1471L44.9186 29.0301C42.7654 26.1595 39.3357 24.4472 35.7389 24.4472C29.3668 24.4472 24.1801 29.6179 24.1801 35.972C24.1801 36.8387 24.2584 37.587 24.4172 38.2592C24.4892 38.572 24.3474 38.8933 24.0679 39.0498C21.3476 40.5785 19.6582 43.4763 19.6582 46.6112C19.6582 51.3991 23.5599 55.2949 28.3549 55.2949H32.3561M24.9045 38.1471L24.9038 38.1443C24.7558 37.5174 24.6801 36.8088 24.6801 35.972C24.6801 29.8954 29.6415 24.9472 35.7389 24.9472C39.1783 24.9472 42.4592 26.5853 44.5178 29.329M24.9045 38.1471L44.5178 29.329M24.3125 39.4859C24.3124 39.4859 24.3123 39.486 24.3121 39.4861L24.068 39.0499L24.3129 39.4856C24.3127 39.4857 24.3126 39.4858 24.3125 39.4859ZM24.3125 39.4859C21.7509 40.9255 20.1582 43.656 20.1582 46.6112C20.1582 51.1223 23.8353 54.7949 28.3549 54.7949H31.8997M31.8997 54.7949C31.8823 54.9491 31.8681 55.1042 31.8573 55.2602L32.3561 55.2949M31.8997 54.7949C32.5088 49.4025 37.0895 45.1983 42.6489 45.1983C48.2081 45.1983 52.7907 49.4041 53.3982 54.7949H54.9872L54.9878 54.7945H55.1482C60.6582 54.7945 65.14 50.3191 65.1421 44.8164M31.8997 54.7949H32.3561V55.2949M32.3561 55.2949C32.7284 49.9407 37.1956 45.6983 42.6489 45.6983C48.1022 45.6983 52.5713 49.9427 52.9417 55.2949H55.1476L55.1482 55.2945L65.1421 44.8164M44.5178 29.329C44.723 29.6052 45.0379 29.7786 45.3765 29.8105C45.7434 29.8561 46.083 29.7139 46.3232 29.494L46.3245 29.4927C47.5383 28.3731 49.1172 27.7545 50.7806 27.7545C54.3765 27.7545 57.3446 30.6586 57.4025 34.2141C57.4025 34.2144 57.4025 34.2148 57.4025 34.2152L57.9024 34.2071C57.9067 34.5157 58.1078 34.7863 58.3999 34.8793M44.5178 29.329L58.2466 35.3552M58.3999 34.8793L58.2458 35.355C58.2461 35.355 58.2463 35.3551 58.2466 35.3552M58.3999 34.8793L58.2482 35.3557C58.2477 35.3556 58.2471 35.3554 58.2466 35.3552M58.3999 34.8793C62.7313 36.2829 65.6421 40.276 65.6421 44.8164M58.2466 35.3552C62.3722 36.6925 65.142 40.4938 65.1421 44.8162L65.6421 44.8164M65.6421 44.8164H65.1421M65.6421 44.8164H65.1421M59.7849 33.3251C59.2793 28.8364 55.4078 25.3215 50.7784 25.3215C48.9368 25.3215 47.1619 25.8753 45.6684 26.9035C43.1467 24.1337 39.5215 22.5143 35.7389 22.5143C28.2957 22.5143 22.2407 28.5498 22.2407 35.9763C22.2407 36.6391 22.2807 37.252 22.3634 37.8302C19.4759 39.7871 17.7188 43.0746 17.7188 46.6131C17.7188 52.4703 22.4907 57.232 28.3528 57.232H31.8976C32.507 62.6226 37.0875 66.8265 42.6467 66.8265C48.2042 66.8265 52.7867 62.6225 53.3959 57.232H55.1455C62.0007 57.232 67.577 51.6652 67.5772 44.8184L59.7849 33.3251ZM59.7849 33.3251C64.4788 35.1983 67.5792 39.7165 67.5772 44.8181L59.7849 33.3251ZM42.6491 64.3916C38.0217 64.3916 34.2599 60.6324 34.2599 56.0136C34.2599 51.3947 38.0217 47.6377 42.6491 47.6377C47.2764 47.6377 51.0382 51.395 51.0382 56.0136C51.0382 60.6326 47.2763 64.3916 42.6491 64.3916Z" stroke="white"/>
<path d="M40.011 55.0523L41.929 53.0864V60.709C41.929 61.1043 42.2508 61.4277 42.6488 61.4277C43.0468 61.4277 43.3686 61.1064 43.3686 60.709V53.0864L45.2866 55.0523C45.5661 55.3334 46.0191 55.3419 46.307 55.065C46.5907 54.788 46.597 54.3336 46.3197 54.0461L43.1675 50.814C43.032 50.6745 42.8457 50.5984 42.6509 50.5984C42.4562 50.5984 42.2699 50.6766 42.1344 50.814L38.9822 54.0461C38.7069 54.3315 38.7112 54.786 38.9949 55.065C39.2785 55.3377 39.7316 55.3355 40.011 55.0523Z" fill="white"/>
</svg>
