<svg width="84" height="85" viewBox="0 0 84 85" fill="none" xmlns="http://www.w3.org/2000/svg">
<path d="M82.342 42.1311C83.8284 49.6156 84.8817 54.918 82.9523 61.0621C78.1075 76.4856 58.1049 85.6353 41.1768 84.0275C25.5333 82.5411 15.701 72.1707 12.8184 69.1307C8.50187 64.578 -0.364132 55.2281 0.0115738 42.1311C0.369233 29.6772 8.86773 21.3609 15.8683 14.5113C22.5211 8.00139 29.963 0.718702 41.1768 0.234721C53.5111 -0.296838 62.4247 7.74217 66.4853 11.4073C78.3684 22.1254 81.1312 36.0395 82.342 42.1311Z" fill="#4648CC"/>
<path d="M21.1641 27.497V60.1691C21.1641 62.6525 23.1821 64.6691 25.6569 64.6691H58.2722C60.7516 64.6691 62.765 62.6478 62.765 60.1691V27.497C62.765 25.0136 60.747 22.9969 58.2722 22.9969H25.6569C23.1775 22.9969 21.1641 25.0182 21.1641 27.497ZM60.4394 27.497V60.1691C60.4394 61.3641 59.4699 62.3351 58.2768 62.3351H25.6569C24.4638 62.3351 23.4944 61.3641 23.4944 60.1691V27.497C23.4944 26.302 24.4638 25.331 25.6569 25.331H58.2722C59.4653 25.331 60.4347 26.302 60.4347 27.497H60.4394Z" fill="#FAFAFA"/>
<path d="M29.4134 53.6429V56.7939C29.4134 57.4381 29.9354 57.9609 30.5785 57.9609C31.2217 57.9609 31.7437 57.4381 31.7437 56.7939V53.6429C33.6685 53.1248 35.0947 51.3696 35.0947 49.2783C35.0947 47.187 33.6732 45.4317 31.7437 44.9136V30.8626C31.7437 30.2184 31.2217 29.6956 30.5785 29.6956C29.9354 29.6956 29.4134 30.2184 29.4134 30.8626V44.9136C27.4885 45.4317 26.067 47.187 26.067 49.2783C26.067 51.3696 27.4885 53.1248 29.4134 53.6429ZM29.4134 47.439C29.7536 47.2243 30.1497 47.0936 30.5785 47.0936C31.0073 47.0936 31.4035 47.2243 31.7437 47.439C32.3542 47.8265 32.7644 48.508 32.7644 49.2829C32.7644 50.0578 32.3542 50.7394 31.7437 51.1268C31.4035 51.3416 31.0073 51.4723 30.5785 51.4723C30.1497 51.4723 29.7536 51.3416 29.4134 51.1268C28.8028 50.7394 28.3973 50.0578 28.3973 49.2829C28.3973 48.508 28.8075 47.8265 29.4134 47.439Z" fill="#FAFAFA"/>
<path d="M40.7999 43.8493V56.7939C40.7999 57.4381 41.3219 57.9609 41.965 57.9609C42.6082 57.9609 43.1302 57.4381 43.1302 56.7939V43.8493C45.055 43.3311 46.4765 41.5759 46.4765 39.4846C46.4765 37.3933 45.055 35.6381 43.1302 35.1199V30.8626C43.1302 30.2184 42.6082 29.6956 41.965 29.6956C41.3219 29.6956 40.7999 30.2184 40.7999 30.8626V35.1199C38.875 35.6381 37.4489 37.3933 37.4489 39.4846C37.4489 41.5759 38.8703 43.3311 40.7999 43.8493ZM40.7999 37.6453C41.1401 37.4306 41.5362 37.2999 41.965 37.2999C42.3938 37.2999 42.79 37.4306 43.1302 37.6453C43.7407 38.0328 44.1462 38.7143 44.1462 39.4892C44.1462 40.2642 43.7361 40.9457 43.1302 41.3331C42.79 41.5479 42.3938 41.6786 41.965 41.6786C41.5362 41.6786 41.1401 41.5479 40.7999 41.3331C40.1893 40.9457 39.7792 40.2642 39.7792 39.4892C39.7792 38.7143 40.1893 38.0328 40.7999 37.6453Z" fill="#F3EDF7"/>
<path d="M52.1847 50.6974V56.7939C52.1847 57.4381 52.7067 57.9609 53.3499 57.9609C53.9931 57.9609 54.5151 57.4381 54.5151 56.7939V50.6974C56.4399 50.1792 57.8614 48.424 57.8614 46.3327C57.8614 44.2414 56.4399 42.4862 54.5151 41.968V30.8626C54.5151 30.2184 53.9931 29.6956 53.3499 29.6956C52.7067 29.6956 52.1847 30.2184 52.1847 30.8626V41.968C50.2599 42.4862 48.8337 44.2414 48.8337 46.3327C48.8337 48.424 50.2552 50.1792 52.1847 50.6974ZM52.1847 44.4935C52.525 44.2787 52.9211 44.148 53.3499 44.148C53.7787 44.148 54.1748 44.2787 54.5151 44.4935C55.1256 44.8809 55.5311 45.5625 55.5311 46.3374C55.5311 47.1123 55.121 47.7938 54.5151 48.1813C54.1748 48.396 53.7787 48.5267 53.3499 48.5267C52.9211 48.5267 52.525 48.396 52.1847 48.1813C51.5742 47.7938 51.1641 47.1123 51.1641 46.3374C51.1641 45.5625 51.5742 44.8809 52.1847 44.4935Z" fill="#FAFAFA"/>
</svg>
