<svg width="85" height="85" viewBox="0 0 85 85" fill="none" xmlns="http://www.w3.org/2000/svg">
<path d="M82.842 42.1311C84.3284 49.6156 85.3817 54.918 83.4523 61.0621C78.6075 76.4856 58.6049 85.6353 41.6768 84.0275C26.0333 82.5411 16.201 72.1707 13.3184 69.1307C9.00187 64.578 0.135868 55.2281 0.511574 42.1311C0.869233 29.6772 9.36773 21.3609 16.3683 14.5113C23.0211 8.00139 30.463 0.718702 41.6768 0.234721C54.0111 -0.296838 62.9247 7.74217 66.9853 11.4073C78.8684 22.1254 81.6312 36.0395 82.842 42.1311Z" fill="#4648CC"/>
<path d="M59.1691 21.3738H25.8314C23.5319 21.3738 21.6642 23.2414 21.6642 25.541V58.8782C21.6642 61.1777 23.5319 63.0454 25.8314 63.0454H59.1691C61.4687 63.0454 63.3364 61.1777 63.3364 58.8782V25.541C63.3364 23.2414 61.4687 21.3738 59.1691 21.3738ZM23.9374 25.541C23.9374 24.4973 24.7878 23.6468 25.8315 23.6468H37.498C37.8447 24.575 38.0284 25.5524 38.0284 26.5657C38.0284 31.1932 34.2647 34.957 29.637 34.957C27.4833 34.957 25.4868 34.133 23.9354 32.6745V25.5411L23.9374 25.541ZM61.0632 58.8782C61.0632 59.9219 60.2127 60.7723 59.169 60.7723H25.8313C24.7876 60.7723 23.9372 59.9219 23.9372 58.8782V35.5688C25.623 36.6428 27.5778 37.23 29.6388 37.23C35.5183 37.23 40.3029 32.4453 40.3029 26.566C40.3029 25.5639 40.1514 24.5903 39.8824 23.6471H59.1688C60.2125 23.6471 61.063 24.4975 61.063 25.5412L61.0649 58.8784L61.0632 58.8782Z" fill="white"/>
<path d="M57.942 31.8484C57.942 30.4903 57.4135 29.2155 56.4531 28.2552C54.5324 26.3326 51.1836 26.3345 49.2648 28.2552L29.3737 48.1474C28.2542 49.265 27.6121 50.7557 27.5647 52.3373L27.4511 56.0897C27.4416 56.4022 27.5609 56.7052 27.7826 56.9269C27.9966 57.1409 28.2864 57.2603 28.5857 57.2603H28.6198L32.4006 57.1466C33.9652 57.0993 35.4332 56.4628 36.5394 55.3566L56.4528 35.4435C57.4132 34.4851 57.942 33.2065 57.942 31.8484ZM54.8469 33.8373L34.9335 53.7504C34.2402 54.4456 33.3158 54.8452 32.3327 54.8737L29.7604 54.9532L29.8362 52.4075C29.8665 51.4073 30.2719 50.4659 30.9803 49.7576L50.8728 29.8633C51.4051 29.3311 52.1097 29.0413 52.8618 29.0413C53.6138 29.0413 54.3165 29.333 54.8488 29.8633C55.3792 30.3956 55.6708 31.0983 55.6708 31.8503C55.6708 32.6023 55.3791 33.3069 54.8488 33.8392L54.8469 33.8373Z" fill="white"/>
<path d="M30.2526 31.638C30.5803 31.638 30.9004 31.4959 31.1202 31.2345L34.471 27.2757C34.8764 26.7965 34.8158 26.0805 34.3384 25.6733C33.8592 25.266 33.1413 25.3266 32.736 25.8059L29.9212 29.132L28.2884 28.4558C27.7069 28.219 27.042 28.4937 26.8052 29.0714C26.5647 29.651 26.8393 30.3178 27.4208 30.5564L29.8208 31.549C29.9609 31.6058 30.1087 31.6361 30.2564 31.6361L30.2526 31.638Z" fill="#F3EDF7"/>
<path d="M57.7433 47.9277H53.1367C52.5097 47.9277 52.0001 48.4373 52.0001 49.0643C52.0001 49.6912 52.5097 50.2008 53.1367 50.2008H57.7433C58.3703 50.2008 58.8799 49.6912 58.8799 49.0643C58.8799 48.4373 58.3703 47.9277 57.7433 47.9277Z" fill="white"/>
<path d="M57.7435 52.078H50.1042C49.4772 52.078 48.9677 52.5875 48.9677 53.2145C48.9677 53.8415 49.4772 54.351 50.1042 54.351H57.7435C58.3705 54.351 58.88 53.8415 58.88 53.2145C58.88 52.5875 58.3705 52.078 57.7435 52.078Z" fill="#F3EDF7"/>
<path d="M57.7435 56.2283H50.1042C49.4772 56.2283 48.9677 56.7378 48.9677 57.3648C48.9677 57.9918 49.4772 58.5013 50.1042 58.5013H57.7435C58.3705 58.5013 58.88 57.9918 58.88 57.3648C58.88 56.7378 58.3705 56.2283 57.7435 56.2283Z" fill="white"/>
</svg>
