<svg width="1440" height="700" viewBox="0 0 1440 700" fill="none" xmlns="http://www.w3.org/2000/svg">
<g clip-path="url(#clip0_177_5597)">
<rect width="1440" height="700" fill="#F5F5F5"/>
<g clip-path="url(#paint0_diamond_177_5597_clip_path)" data-figma-skip-parse="true"><g transform="matrix(0.54543 0.108613 0.231586 -0.750473 773.015 485.086)"><rect x="0" y="0" width="1002.24" height="1001.58" fill="url(#paint0_diamond_177_5597)" opacity="0.15" shape-rendering="crispEdges"/><rect x="0" y="0" width="1002.24" height="1001.58" transform="scale(1 -1)" fill="url(#paint0_diamond_177_5597)" opacity="0.15" shape-rendering="crispEdges"/><rect x="0" y="0" width="1002.24" height="1001.58" transform="scale(-1 1)" fill="url(#paint0_diamond_177_5597)" opacity="0.15" shape-rendering="crispEdges"/><rect x="0" y="0" width="1002.24" height="1001.58" transform="scale(-1)" fill="url(#paint0_diamond_177_5597)" opacity="0.15" shape-rendering="crispEdges"/></g></g><path d="M686.319 -324.586C660.53 -278.045 758.104 -192.88 803.874 -151.033C884.216 -77.4959 973.499 -6.5747 1047.27 68.8025C1121.04 144.18 1179.84 225.696 1190.8 306.913C1201.78 388.078 1159.55 469.071 1057.26 513.406C978.673 547.479 873.857 557.33 772.996 567.86C630.811 582.7 488.607 600.74 365.044 638.395C241.48 676.051 136.596 735.394 95.2638 815.045C50.2591 901.891 84.6692 1004.71 154.688 1097.58C173.094 1122.04 195.621 1147.26 232.378 1164.02C259.202 1176.26 290.979 1182.8 321.966 1189.08C566.835 1238.77 811.704 1288.45 1056.57 1338.14C1065.59 1339.99 1075.89 1341.76 1083 1339.11C1088.81 1336.9 1090.49 1332.41 1091.78 1328.21C1244.06 834.443 1396.33 340.675 1548.6 -153.094C1404.49 -181.9 1260.09 -210.709 1115.69 -239.519C975.298 -267.529 828.371 -305.418 686.319 -324.586Z" data-figma-gradient-fill="{&#34;type&#34;:&#34;GRADIENT_DIAMOND&#34;,&#34;stops&#34;:[{&#34;color&#34;:{&#34;r&#34;:0.69803923368453979,&#34;g&#34;:0.67843139171600342,&#34;b&#34;:0.88627451658248901,&#34;a&#34;:1.0},&#34;position&#34;:0.0},{&#34;color&#34;:{&#34;r&#34;:0.77254903316497803,&#34;g&#34;:0.76078432798385620,&#34;b&#34;:0.91372549533843994,&#34;a&#34;:0.0},&#34;position&#34;:1.0}],&#34;stopsVar&#34;:[{&#34;color&#34;:{&#34;r&#34;:0.69803923368453979,&#34;g&#34;:0.67843139171600342,&#34;b&#34;:0.88627451658248901,&#34;a&#34;:1.0},&#34;position&#34;:0.0},{&#34;color&#34;:{&#34;r&#34;:0.77254903316497803,&#34;g&#34;:0.76078432798385620,&#34;b&#34;:0.91372549533843994,&#34;a&#34;:0.0},&#34;position&#34;:1.0}],&#34;transform&#34;:{&#34;m00&#34;:1090.8599853515625,&#34;m01&#34;:463.17111206054688,&#34;m02&#34;:-4.0002088546752930,&#34;m10&#34;:217.22605895996094,&#34;m11&#34;:-1500.9461669921875,&#34;m12&#34;:1126.9461669921875},&#34;opacity&#34;:0.15000000596046448,&#34;blendMode&#34;:&#34;NORMAL&#34;,&#34;visible&#34;:true}"/>
<g clip-path="url(#paint1_diamond_177_5597_clip_path)" data-figma-skip-parse="true"><g transform="matrix(0.54543 0.108613 0.231586 -0.750473 941.015 499.086)"><rect x="0" y="0" width="1002.24" height="1001.58" fill="url(#paint1_diamond_177_5597)" opacity="0.15" shape-rendering="crispEdges"/><rect x="0" y="0" width="1002.24" height="1001.58" transform="scale(1 -1)" fill="url(#paint1_diamond_177_5597)" opacity="0.15" shape-rendering="crispEdges"/><rect x="0" y="0" width="1002.24" height="1001.58" transform="scale(-1 1)" fill="url(#paint1_diamond_177_5597)" opacity="0.15" shape-rendering="crispEdges"/><rect x="0" y="0" width="1002.24" height="1001.58" transform="scale(-1)" fill="url(#paint1_diamond_177_5597)" opacity="0.15" shape-rendering="crispEdges"/></g></g><path d="M854.319 -310.586C828.53 -264.045 926.104 -178.88 971.874 -137.033C1052.22 -63.4959 1141.5 7.4253 1215.27 82.8025C1289.04 158.18 1347.84 239.696 1358.8 320.913C1369.78 402.078 1327.55 483.071 1225.26 527.406C1146.67 561.479 1041.86 571.33 940.996 581.86C798.811 596.7 656.607 614.74 533.044 652.395C409.48 690.051 304.596 749.394 263.264 829.045C218.259 915.891 252.669 1018.71 322.688 1111.58C341.094 1136.04 363.621 1161.26 400.378 1178.02C427.202 1190.26 458.979 1196.8 489.966 1203.08C734.835 1252.77 979.704 1302.45 1224.57 1352.14C1233.59 1353.99 1243.89 1355.76 1251 1353.11C1256.81 1350.9 1258.49 1346.41 1259.78 1342.21C1412.06 848.443 1564.33 354.675 1716.6 -139.094C1572.49 -167.9 1428.09 -196.709 1283.69 -225.519C1143.3 -253.529 996.371 -291.418 854.319 -310.586Z" data-figma-gradient-fill="{&#34;type&#34;:&#34;GRADIENT_DIAMOND&#34;,&#34;stops&#34;:[{&#34;color&#34;:{&#34;r&#34;:0.69803923368453979,&#34;g&#34;:0.67843139171600342,&#34;b&#34;:0.88627451658248901,&#34;a&#34;:1.0},&#34;position&#34;:0.0},{&#34;color&#34;:{&#34;r&#34;:0.77254903316497803,&#34;g&#34;:0.76078432798385620,&#34;b&#34;:0.91372549533843994,&#34;a&#34;:0.0},&#34;position&#34;:1.0}],&#34;stopsVar&#34;:[{&#34;color&#34;:{&#34;r&#34;:0.69803923368453979,&#34;g&#34;:0.67843139171600342,&#34;b&#34;:0.88627451658248901,&#34;a&#34;:1.0},&#34;position&#34;:0.0},{&#34;color&#34;:{&#34;r&#34;:0.77254903316497803,&#34;g&#34;:0.76078432798385620,&#34;b&#34;:0.91372549533843994,&#34;a&#34;:0.0},&#34;position&#34;:1.0}],&#34;transform&#34;:{&#34;m00&#34;:1090.8599853515625,&#34;m01&#34;:463.17111206054688,&#34;m02&#34;:163.99978637695312,&#34;m10&#34;:217.22605895996094,&#34;m11&#34;:-1500.9461669921875,&#34;m12&#34;:1140.9461669921875},&#34;opacity&#34;:0.15000000596046448,&#34;blendMode&#34;:&#34;NORMAL&#34;,&#34;visible&#34;:true}"/>
<g clip-path="url(#paint2_diamond_177_5597_clip_path)" data-figma-skip-parse="true"><g transform="matrix(0.54543 0.108613 0.231586 -0.750473 633.016 473.086)"><rect x="0" y="0" width="1002.24" height="1001.58" fill="url(#paint2_diamond_177_5597)" opacity="0.15" shape-rendering="crispEdges"/><rect x="0" y="0" width="1002.24" height="1001.58" transform="scale(1 -1)" fill="url(#paint2_diamond_177_5597)" opacity="0.15" shape-rendering="crispEdges"/><rect x="0" y="0" width="1002.24" height="1001.58" transform="scale(-1 1)" fill="url(#paint2_diamond_177_5597)" opacity="0.15" shape-rendering="crispEdges"/><rect x="0" y="0" width="1002.24" height="1001.58" transform="scale(-1)" fill="url(#paint2_diamond_177_5597)" opacity="0.15" shape-rendering="crispEdges"/></g></g><path d="M546.319 -336.586C520.531 -290.045 618.104 -204.88 663.874 -163.033C744.216 -89.4959 833.5 -18.5747 907.27 56.8025C981.04 132.18 1039.84 213.696 1050.8 294.913C1061.78 376.078 1019.55 457.071 917.263 501.406C838.673 535.479 733.857 545.33 632.996 555.86C490.811 570.7 348.608 588.74 225.044 626.395C101.481 664.051 -3.40383 723.394 -44.736 803.045C-89.7407 889.891 -55.3306 992.713 14.6882 1085.58C33.094 1110.04 55.6209 1135.26 92.378 1152.02C119.203 1164.26 150.979 1170.8 181.966 1177.08C426.835 1226.77 671.704 1276.45 916.573 1326.14C925.589 1327.99 935.886 1329.76 942.999 1327.11C948.813 1324.9 950.491 1320.41 951.785 1316.21C1104.06 822.443 1256.33 328.675 1408.6 -165.094C1264.49 -193.9 1120.09 -222.709 975.686 -251.519C835.298 -279.529 688.371 -317.418 546.319 -336.586Z" data-figma-gradient-fill="{&#34;type&#34;:&#34;GRADIENT_DIAMOND&#34;,&#34;stops&#34;:[{&#34;color&#34;:{&#34;r&#34;:0.69803923368453979,&#34;g&#34;:0.67843139171600342,&#34;b&#34;:0.88627451658248901,&#34;a&#34;:1.0},&#34;position&#34;:0.0},{&#34;color&#34;:{&#34;r&#34;:0.77254903316497803,&#34;g&#34;:0.76078432798385620,&#34;b&#34;:0.91372549533843994,&#34;a&#34;:0.0},&#34;position&#34;:1.0}],&#34;stopsVar&#34;:[{&#34;color&#34;:{&#34;r&#34;:0.69803923368453979,&#34;g&#34;:0.67843139171600342,&#34;b&#34;:0.88627451658248901,&#34;a&#34;:1.0},&#34;position&#34;:0.0},{&#34;color&#34;:{&#34;r&#34;:0.77254903316497803,&#34;g&#34;:0.76078432798385620,&#34;b&#34;:0.91372549533843994,&#34;a&#34;:0.0},&#34;position&#34;:1.0}],&#34;transform&#34;:{&#34;m00&#34;:1090.8599853515625,&#34;m01&#34;:463.17111206054688,&#34;m02&#34;:-144.0,&#34;m10&#34;:217.22605895996094,&#34;m11&#34;:-1500.9461669921875,&#34;m12&#34;:1114.9461669921875},&#34;opacity&#34;:0.15000000596046448,&#34;blendMode&#34;:&#34;NORMAL&#34;,&#34;visible&#34;:true}"/>
</g>
<defs>
<clipPath id="paint0_diamond_177_5597_clip_path"><path d="M686.319 -324.586C660.53 -278.045 758.104 -192.88 803.874 -151.033C884.216 -77.4959 973.499 -6.5747 1047.27 68.8025C1121.04 144.18 1179.84 225.696 1190.8 306.913C1201.78 388.078 1159.55 469.071 1057.26 513.406C978.673 547.479 873.857 557.33 772.996 567.86C630.811 582.7 488.607 600.74 365.044 638.395C241.48 676.051 136.596 735.394 95.2638 815.045C50.2591 901.891 84.6692 1004.71 154.688 1097.58C173.094 1122.04 195.621 1147.26 232.378 1164.02C259.202 1176.26 290.979 1182.8 321.966 1189.08C566.835 1238.77 811.704 1288.45 1056.57 1338.14C1065.59 1339.99 1075.89 1341.76 1083 1339.11C1088.81 1336.9 1090.49 1332.41 1091.78 1328.21C1244.06 834.443 1396.33 340.675 1548.6 -153.094C1404.49 -181.9 1260.09 -210.709 1115.69 -239.519C975.298 -267.529 828.371 -305.418 686.319 -324.586Z"/></clipPath><clipPath id="paint1_diamond_177_5597_clip_path"><path d="M854.319 -310.586C828.53 -264.045 926.104 -178.88 971.874 -137.033C1052.22 -63.4959 1141.5 7.4253 1215.27 82.8025C1289.04 158.18 1347.84 239.696 1358.8 320.913C1369.78 402.078 1327.55 483.071 1225.26 527.406C1146.67 561.479 1041.86 571.33 940.996 581.86C798.811 596.7 656.607 614.74 533.044 652.395C409.48 690.051 304.596 749.394 263.264 829.045C218.259 915.891 252.669 1018.71 322.688 1111.58C341.094 1136.04 363.621 1161.26 400.378 1178.02C427.202 1190.26 458.979 1196.8 489.966 1203.08C734.835 1252.77 979.704 1302.45 1224.57 1352.14C1233.59 1353.99 1243.89 1355.76 1251 1353.11C1256.81 1350.9 1258.49 1346.41 1259.78 1342.21C1412.06 848.443 1564.33 354.675 1716.6 -139.094C1572.49 -167.9 1428.09 -196.709 1283.69 -225.519C1143.3 -253.529 996.371 -291.418 854.319 -310.586Z"/></clipPath><clipPath id="paint2_diamond_177_5597_clip_path"><path d="M546.319 -336.586C520.531 -290.045 618.104 -204.88 663.874 -163.033C744.216 -89.4959 833.5 -18.5747 907.27 56.8025C981.04 132.18 1039.84 213.696 1050.8 294.913C1061.78 376.078 1019.55 457.071 917.263 501.406C838.673 535.479 733.857 545.33 632.996 555.86C490.811 570.7 348.608 588.74 225.044 626.395C101.481 664.051 -3.40383 723.394 -44.736 803.045C-89.7407 889.891 -55.3306 992.713 14.6882 1085.58C33.094 1110.04 55.6209 1135.26 92.378 1152.02C119.203 1164.26 150.979 1170.8 181.966 1177.08C426.835 1226.77 671.704 1276.45 916.573 1326.14C925.589 1327.99 935.886 1329.76 942.999 1327.11C948.813 1324.9 950.491 1320.41 951.785 1316.21C1104.06 822.443 1256.33 328.675 1408.6 -165.094C1264.49 -193.9 1120.09 -222.709 975.686 -251.519C835.298 -279.529 688.371 -317.418 546.319 -336.586Z"/></clipPath><linearGradient id="paint0_diamond_177_5597" x1="0" y1="0" x2="500" y2="500" gradientUnits="userSpaceOnUse">
<stop stop-color="#B2ADE2"/>
<stop offset="1" stop-color="#C5C2E9" stop-opacity="0"/>
</linearGradient>
<linearGradient id="paint1_diamond_177_5597" x1="0" y1="0" x2="500" y2="500" gradientUnits="userSpaceOnUse">
<stop stop-color="#B2ADE2"/>
<stop offset="1" stop-color="#C5C2E9" stop-opacity="0"/>
</linearGradient>
<linearGradient id="paint2_diamond_177_5597" x1="0" y1="0" x2="500" y2="500" gradientUnits="userSpaceOnUse">
<stop stop-color="#B2ADE2"/>
<stop offset="1" stop-color="#C5C2E9" stop-opacity="0"/>
</linearGradient>
<clipPath id="clip0_177_5597">
<rect width="1440" height="700" fill="white"/>
</clipPath>
</defs>
</svg>
