<svg width="167" height="146" viewBox="0 0 167 146" fill="none" xmlns="http://www.w3.org/2000/svg">
<path d="M123.234 39.8365C123.136 39.0238 122.437 38.4071 121.623 38.4071C103.283 38.4071 83.0092 24.2299 82.7986 24.0841C82.2291 23.6945 81.4825 23.6945 80.9297 24.0841C80.7191 24.2299 60.4429 38.4071 42.105 38.4071C41.2914 38.4071 40.5926 39.0238 40.4945 39.8365C32.4635 105.383 80.8962 121.006 81.3844 121.168C81.5471 121.216 81.6931 121.233 81.8558 121.233C82.0185 121.233 82.1812 121.216 82.3272 121.168C82.8154 121.023 131.248 105.399 123.234 39.8365ZM81.8558 117.903C76.7179 116.149 36.9815 100.525 43.5504 41.6389C60.395 41.0389 77.6608 30.2058 81.8558 27.3971C86.0675 30.2058 103.333 41.0389 120.161 41.6389C126.713 100.525 86.9769 116.149 81.8558 117.903Z" fill="black"/>
<path d="M114.406 45.9574C101.366 44.0092 88.9436 37.4142 82.7001 33.6638C82.1809 33.3554 81.53 33.3554 81.025 33.6638C74.7816 37.4142 62.3593 44.0092 49.3196 45.9574C48.5563 46.0721 47.9867 46.6888 47.9389 47.4513C45.0122 92.9566 72.6518 108.644 81.2045 112.381C81.4151 112.479 81.6281 112.51 81.8554 112.51C82.0827 112.51 82.3101 112.462 82.5231 112.364C91.059 108.58 118.682 92.7295 115.803 47.4346C115.755 46.6721 115.186 46.0386 114.422 45.9239L114.406 45.9574ZM81.8387 109.132C73.2046 105.169 48.9631 90.2603 51.0929 48.9788C63.6444 46.8179 75.3822 40.7775 81.853 36.9625C88.307 40.7631 100.062 46.8203 112.613 48.9788C114.709 90.0834 90.4536 105.121 81.8363 109.132H81.8387Z" fill="black"/>
<path d="M81.8555 53.0236C71.9866 53.0236 63.97 61.0289 63.97 70.8891C63.97 80.7493 72.001 88.7546 81.8555 88.7546C91.7101 88.7546 99.7411 80.7493 99.7411 70.8891C99.7411 61.0289 91.7101 53.0236 81.8555 53.0236ZM81.8555 85.5037C73.791 85.5037 67.2245 78.9422 67.2245 70.8891C67.2245 62.836 73.7934 56.2744 81.8555 56.2744C89.9177 56.2744 96.4866 62.836 96.4866 70.8891C96.4866 78.9422 89.9177 85.5037 81.8555 85.5037Z" fill="black"/>
<path d="M88.7654 63.6266L78.7002 75.0429L74.8475 71.3403C74.1965 70.7236 73.1723 70.7403 72.5549 71.3881C71.9375 72.0383 71.9543 73.0613 72.6028 73.678L77.6928 78.5496C78.0015 78.8412 78.4083 79.0038 78.8151 79.0038H78.8797C79.3177 78.987 79.7412 78.7934 80.0332 78.4516L91.2182 65.7683C91.8045 65.1014 91.7375 64.064 91.0723 63.4784C90.4046 62.8927 89.366 62.9429 88.7797 63.6242H88.763L88.7654 63.6266Z" fill="black"/>
</svg>
