<svg width="507" height="342" viewBox="0 0 507 342" fill="none" xmlns="http://www.w3.org/2000/svg">
<path d="M315.872 149.551H183.186C180.25 149.551 177.871 151.93 177.871 154.865V188.321C177.871 191.256 180.25 193.634 183.186 193.634H315.872C318.807 193.634 321.187 191.256 321.187 188.321V154.865C321.187 151.93 318.807 149.551 315.872 149.551Z" fill="#4648C4"/>
<path d="M206.624 160.127V182.989C206.624 183.207 206.527 183.318 206.332 183.318H205.818C205.623 183.318 205.526 183.207 205.526 182.989V160.127C205.526 159.91 205.623 159.799 205.818 159.799H206.332C206.527 159.799 206.624 159.91 206.624 160.127Z" fill="white"/>
<path d="M214.159 183.318H213.644C213.45 183.318 213.352 183.207 213.352 182.989V164.992C213.352 164.774 213.45 164.663 213.644 164.663H214.159C214.353 164.663 214.45 164.774 214.45 164.992V166.567H214.599C215.28 165.297 216.573 164.663 218.477 164.663H221.183C222.671 164.663 223.862 165.112 224.752 166.015C225.641 166.919 226.086 168.123 226.086 169.638V182.989C226.086 183.207 225.989 183.318 225.794 183.318H225.28C225.085 183.318 224.988 183.207 224.988 182.989V169.675C224.988 168.434 224.659 167.456 224.001 166.747C223.343 166.039 222.402 165.687 221.183 165.687H218.547C217.328 165.687 216.341 166.015 215.581 166.673C214.826 167.331 214.446 168.271 214.446 169.49V182.989C214.446 183.207 214.349 183.318 214.154 183.318H214.159Z" fill="white"/>
<path d="M235.159 164.663H238.598C238.815 164.663 238.927 164.76 238.927 164.955V165.395C238.927 165.589 238.815 165.686 238.598 165.686H235.159C234.941 165.686 234.83 165.784 234.83 165.978V182.989C234.83 183.207 234.733 183.318 234.538 183.318H234.024C233.829 183.318 233.732 183.207 233.732 182.989V165.978C233.732 165.784 233.621 165.686 233.403 165.686H230.915C230.697 165.686 230.586 165.589 230.586 165.395V164.955C230.586 164.76 230.697 164.663 230.915 164.663H233.403C233.621 164.663 233.732 164.565 233.732 164.371V162.504C233.732 159.238 235.173 157.603 238.051 157.603H238.598C238.815 157.603 238.927 157.7 238.927 157.895V158.335C238.927 158.529 238.815 158.627 238.598 158.627H238.051C236.878 158.627 236.049 158.951 235.562 159.595C235.076 160.243 234.83 161.221 234.83 162.541V164.371C234.83 164.565 234.941 164.663 235.159 164.663Z" fill="white"/>
<path d="M243.213 161.628V158.006C243.213 157.788 243.31 157.677 243.505 157.677H244.019C244.214 157.677 244.311 157.788 244.311 158.006V161.628C244.311 161.846 244.214 161.957 244.019 161.957H243.505C243.31 161.957 243.213 161.846 243.213 161.628ZM243.213 182.989V164.992C243.213 164.774 243.31 164.663 243.505 164.663H244.019C244.214 164.663 244.311 164.774 244.311 164.992V182.989C244.311 183.207 244.214 183.318 244.019 183.318H243.505C243.31 183.318 243.213 183.207 243.213 182.989Z" fill="white"/>
<path d="M251.591 165.686H249.177C248.959 165.686 248.848 165.589 248.848 165.395V164.955C248.848 164.76 248.959 164.663 249.177 164.663H251.591C251.809 164.663 251.92 164.565 251.92 164.371V161.517C251.92 161.3 252.017 161.188 252.212 161.188H252.726C252.921 161.188 253.018 161.3 253.018 161.517V164.371C253.018 164.565 253.129 164.663 253.347 164.663H258.069C258.287 164.663 258.398 164.76 258.398 164.955V165.395C258.398 165.589 258.287 165.686 258.069 165.686H253.347C253.129 165.686 253.018 165.784 253.018 165.978V178.417C253.018 179.635 253.379 180.589 254.098 181.27C254.816 181.951 255.798 182.294 257.045 182.294H258.435C258.653 182.294 258.764 182.391 258.764 182.586V183.026C258.764 183.221 258.653 183.318 258.435 183.318H257.045C255.534 183.318 254.302 182.878 253.347 182.002C252.397 181.122 251.92 179.941 251.92 178.454V165.978C251.92 165.784 251.809 165.686 251.591 165.686Z" fill="white"/>
<path d="M273.727 182.591V183.031C273.727 183.225 273.616 183.322 273.398 183.322H268.203C266.716 183.322 265.525 182.873 264.635 181.97C263.745 181.066 263.301 179.862 263.301 178.347V169.643C263.301 168.132 263.745 166.923 264.635 166.02C265.525 165.117 266.716 164.667 268.203 164.667H273.398C273.616 164.667 273.727 164.765 273.727 164.959V165.399C273.727 165.594 273.616 165.691 273.398 165.691H268.203C266.984 165.691 266.044 166.043 265.386 166.752C264.728 167.461 264.399 168.434 264.399 169.68V178.315C264.399 179.556 264.728 180.534 265.386 181.242C266.044 181.951 266.984 182.303 268.203 182.303H273.398C273.616 182.303 273.727 182.401 273.727 182.595V182.591Z" fill="white"/>
<path d="M279.07 183.318H278.555C278.361 183.318 278.263 183.207 278.263 182.989V157.932C278.263 157.714 278.361 157.603 278.555 157.603H279.07C279.264 157.603 279.362 157.714 279.362 157.932V166.567H279.51C280.191 165.297 281.484 164.663 283.388 164.663H286.095C287.582 164.663 288.773 165.112 289.663 166.015C290.552 166.919 290.997 168.123 290.997 169.638V182.989C290.997 183.207 290.9 183.318 290.705 183.318H290.191C289.996 183.318 289.899 183.207 289.899 182.989V169.675C289.899 168.434 289.57 167.456 288.912 166.747C288.254 166.039 287.313 165.686 286.095 165.686H283.458C282.239 165.686 281.252 166.015 280.492 166.673C279.737 167.331 279.357 168.271 279.357 169.49V182.989C279.357 183.207 279.26 183.318 279.065 183.318H279.07Z" fill="white"/>
<path d="M44.309 18.0668H75.0315C77.8674 18.0668 80.226 20.2302 80.5921 23.1533C81.4262 29.9075 81.3891 36.7219 80.5689 43.4715C80.2167 46.3993 77.8442 48.5765 75.0083 48.5765H44.3321C41.4962 48.5765 39.1283 46.3993 38.7715 43.4715C37.9513 36.7312 37.9142 29.8843 38.7483 23.144C39.1098 20.2256 41.4823 18.0575 44.309 18.0575V18.0668ZM75.0315 20.1792H44.3043C42.4971 20.1792 40.9818 21.5458 40.7548 23.4174C39.9392 30.0002 39.9763 36.6339 40.778 43.2167C41.0004 45.0883 42.5157 46.4688 44.3275 46.4688H75.0037C76.8109 46.4688 78.3261 45.0883 78.5532 43.2214C79.3502 36.6293 79.3873 30.0141 78.5764 23.4174C78.3447 21.5458 76.8387 20.1792 75.0268 20.1792H75.0361H75.0315Z" fill="black"/>
<path d="M66.1437 34.2065L56.3153 40.7708C55.6341 41.2247 54.7537 40.7059 54.7537 39.8859V26.7574C54.7537 25.8819 55.7175 25.3954 56.3755 25.9143L66.1483 32.4369C66.7785 32.8538 66.76 33.8035 66.1483 34.2111L66.1437 34.2065ZM56.7833 37.9542L63.7202 33.3217L56.7833 28.6892V37.9542Z" fill="black"/>
<path fill-rule="evenodd" clip-rule="evenodd" d="M459.382 19.3685C463.344 22.1666 465.634 26.6925 465.495 31.464C465.356 36.2355 462.807 40.6271 458.692 43.1982C454.577 45.7692 449.415 46.1908 444.92 44.3146L442.464 47.6361C442.39 47.7334 442.284 47.8029 442.158 47.8214C442.033 47.84 441.913 47.8122 441.811 47.7427L440.824 47.0478L439.123 49.3455L440.11 50.0404C440.319 50.1887 440.365 50.4712 440.212 50.6751L431.969 61.807C430.801 63.3867 428.544 63.7388 426.932 62.5992C425.314 61.4642 424.953 59.2591 426.121 57.6841L434.364 46.5568C434.438 46.4595 434.545 46.39 434.67 46.3715C434.795 46.3529 434.916 46.3807 435.018 46.4502L436.005 47.1451L437.705 44.8474L436.718 44.1525C436.51 44.0042 436.463 43.7217 436.616 43.5178L439.179 40.0573C435.898 36.0502 435.045 30.6441 436.941 25.8541C438.836 21.0687 443.196 17.6267 448.386 16.816C452.256 16.2045 456.213 17.1218 459.392 19.3685H459.382ZM433.512 49.2483L437.844 52.3057L439.17 50.5176L434.837 47.4601L433.512 49.2529V49.2483ZM437.298 53.0423L432.965 49.9848L426.867 58.2168C426 59.3842 426.274 61.0195 427.469 61.8626C428.665 62.7057 430.342 62.4417 431.204 61.2743L437.302 53.0423H437.298ZM443.655 26.0718C444.012 25.5946 444.41 25.1545 444.86 24.7562C445.055 24.5848 445.064 24.3022 444.892 24.1122C444.721 23.9223 444.424 23.913 444.234 24.0798C443.989 24.2975 443.752 24.5338 443.53 24.7747C443.308 25.0202 443.099 25.2704 442.9 25.539C442.752 25.7429 442.798 26.0301 443.002 26.1737C443.21 26.3219 443.502 26.2756 443.655 26.0718ZM447.297 23.2274C450.11 22.0508 453.349 22.4075 455.833 24.1586C456.041 24.3068 456.333 24.2605 456.486 24.0566C456.635 23.8528 456.588 23.5656 456.384 23.422C453.637 21.481 450.055 21.0918 446.936 22.3889C446.7 22.4862 446.588 22.7549 446.69 22.9865C446.792 23.2182 447.066 23.3247 447.302 23.2274H447.297ZM457.876 21.3976C454.8 19.2249 450.861 18.5717 447.223 19.6372C443.586 20.7027 440.662 23.3479 439.309 26.8084C437.956 30.2688 438.331 34.1509 440.323 37.3056C442.316 40.4557 445.694 42.5311 449.471 42.911C453.247 43.2862 456.991 41.9335 459.6 39.242C462.205 36.5505 463.382 32.826 462.774 29.1663C462.265 26.044 460.499 23.2506 457.876 21.4022V21.3976ZM461.857 29.3099C461.301 25.9282 459.165 22.9958 456.079 21.3744C452.997 19.7484 449.308 19.6141 446.111 21.0177C442.914 22.4167 440.56 25.187 439.749 28.5178C438.938 31.8439 439.763 35.3553 441.973 38.0051C444.188 40.6596 447.538 42.1559 451.046 42.0586C454.549 41.9613 457.812 40.2797 459.864 37.5048C461.621 35.1423 462.339 32.1913 461.857 29.3099ZM438.97 41.8826L443.303 44.94L444.054 43.9255C442.571 43.1936 441.227 42.2207 440.073 41.058L439.753 40.8263L438.97 41.8826ZM442.756 45.6859L438.424 42.6284L437.64 43.6846L441.973 46.7421L442.756 45.6859ZM440.055 46.5104L438.456 45.3847L436.755 47.6825L438.359 48.8128L440.059 46.5151L440.055 46.5104ZM464.387 28.9162C463.803 25.3769 461.806 22.2083 458.831 20.1144C455.856 18.0158 452.149 17.1542 448.525 17.724C444.902 18.2938 441.658 20.2441 439.503 23.144C437.353 26.0486 436.473 29.6666 437.052 33.2059C437.636 36.7451 439.633 39.9137 442.608 42.0076C445.583 44.1062 449.29 44.9678 452.918 44.398C456.547 43.8282 459.786 41.8779 461.94 38.978C464.095 36.0734 464.971 32.4554 464.392 28.9162H464.387Z" fill="black" stroke="#231F20" stroke-miterlimit="10"/>
<path d="M71.7322 94.8785H43.5861C40.2265 94.8785 37.5018 97.306 37.4972 100.294V125.337C37.4972 128.325 40.2265 130.753 43.5861 130.753H71.7322C75.0917 130.753 77.8164 128.325 77.8211 125.337V100.294C77.8211 97.306 75.0917 94.8785 71.7322 94.8785ZM39.309 100.294C39.309 98.1954 41.2275 96.4907 43.5861 96.4907H71.7322C74.0908 96.4907 76.0046 98.1954 76.0092 100.294V118.25L69.6377 113.209C69.2762 112.922 68.7155 112.941 68.3819 113.256L62.3764 118.866L56.4636 113.26C56.2921 113.098 56.0558 113.006 55.8056 113.006C55.5553 113.006 55.319 113.094 55.1522 113.256L39.9902 127.371C39.55 126.764 39.3183 126.06 39.3137 125.337V100.294H39.309ZM41.2553 128.52L55.7963 114.984L70.722 129.145H43.5861C42.7566 129.145 41.9457 128.928 41.2599 128.52H41.2553ZM73.0065 128.951L63.6183 120.042L69.0955 114.933L76.0138 120.404V125.342C76.0046 127 74.7905 128.464 73.0111 128.955L73.0065 128.951Z" fill="black" stroke="#231F20" stroke-width="0.75" stroke-miterlimit="10"/>
<path d="M60.8472 109.568C63.3171 109.568 65.3235 107.785 65.3235 105.584C65.3235 103.384 63.3171 101.6 60.8472 101.6C58.3774 101.6 56.3709 103.384 56.3709 105.584C56.3709 107.78 58.3774 109.564 60.8472 109.568ZM60.8472 103.212C62.3208 103.212 63.5117 104.278 63.5117 105.584C63.5117 106.891 62.3162 107.956 60.8472 107.956C59.3783 107.956 58.1827 106.891 58.1827 105.584C58.1827 104.278 59.3783 103.212 60.8472 103.212Z" fill="black" stroke="#231F20" stroke-width="0.75" stroke-miterlimit="10"/>
<path fill-rule="evenodd" clip-rule="evenodd" d="M77.849 235.892H41.172C40.6762 235.892 40.2776 235.549 40.2776 235.128V197.021C40.2776 196.599 40.6762 196.256 41.172 196.256H48.2479V188.895C48.2479 188.474 48.6464 188.131 49.1422 188.131H77.798C78.2938 188.131 78.6924 188.474 78.6924 188.895V227.299L78.748 235.114C78.748 235.318 78.6553 235.508 78.4838 235.651C78.3124 235.795 78.09 235.874 77.849 235.874V235.888V235.892ZM42.0663 234.364H76.95L76.9037 227.304V189.669H50.0273V197.03C50.0273 197.452 49.6288 197.794 49.133 197.794H42.0663V234.377V234.368V234.364Z" fill="black"/>
<path fill-rule="evenodd" clip-rule="evenodd" d="M49.1328 197.79H41.1719C40.8243 197.79 40.5092 197.619 40.3609 197.35C40.2126 197.077 40.2636 196.766 40.486 196.539L48.4516 188.418C48.6926 188.178 49.0911 188.08 49.4387 188.187C49.7908 188.298 50.0272 188.581 50.0272 188.905V197.026C50.0272 197.447 49.6286 197.79 49.1328 197.79ZM43.081 196.261H48.2431V190.999L43.081 196.261Z" fill="black"/>
<path fill-rule="evenodd" clip-rule="evenodd" d="M70.4532 203.367H48.5073C48.0114 203.367 47.6129 203.025 47.6129 202.603C47.6129 202.181 48.0114 201.839 48.5073 201.839H70.4625C70.9583 201.839 71.3568 202.181 71.3568 202.603C71.3568 203.025 70.9583 203.367 70.4625 203.367H70.4532Z" fill="black"/>
<path fill-rule="evenodd" clip-rule="evenodd" d="M70.4532 208.755H48.5073C48.0114 208.755 47.6129 208.412 47.6129 207.991C47.6129 207.569 48.0114 207.226 48.5073 207.226H70.4625C70.9583 207.226 71.3568 207.569 71.3568 207.991C71.3568 208.412 70.9583 208.755 70.4625 208.755H70.4532Z" fill="black"/>
<path fill-rule="evenodd" clip-rule="evenodd" d="M70.4532 214.143H48.5073C48.0114 214.143 47.6129 213.8 47.6129 213.378C47.6129 212.957 48.0114 212.614 48.5073 212.614H70.4625C70.9583 212.614 71.3568 212.957 71.3568 213.378C71.3568 213.8 70.9583 214.143 70.4625 214.143H70.4532Z" fill="black"/>
<path fill-rule="evenodd" clip-rule="evenodd" d="M70.4532 219.54H48.5073C48.0114 219.54 47.6129 219.197 47.6129 218.775C47.6129 218.354 48.0114 218.011 48.5073 218.011H70.4625C70.9583 218.011 71.3568 218.354 71.3568 218.775C71.3568 219.197 70.9583 219.54 70.4625 219.54H70.4532Z" fill="black"/>
<path fill-rule="evenodd" clip-rule="evenodd" d="M70.4532 224.927H48.5073C48.0114 224.927 47.6129 224.584 47.6129 224.163C47.6129 223.741 48.0114 223.398 48.5073 223.398H70.4625C70.9583 223.398 71.3568 223.741 71.3568 224.163C71.3568 224.584 70.9583 224.927 70.4625 224.927H70.4532Z" fill="black"/>
<path fill-rule="evenodd" clip-rule="evenodd" d="M69.0723 230.315H48.5073C48.0114 230.315 47.6129 229.972 47.6129 229.55C47.6129 229.129 48.0114 228.786 48.5073 228.786H69.0723C69.5681 228.786 69.9667 229.129 69.9667 229.55C69.9667 229.972 69.5681 230.315 69.0723 230.315Z" fill="black"/>
<path d="M469.243 208.653H460.402V186.042C460.402 185.852 460.249 185.699 460.059 185.699H456.38V182.503C456.38 182.313 456.227 182.16 456.037 182.16H433.331C433.141 182.16 432.988 182.313 432.988 182.503V208.653H425.37C425.18 208.653 425.027 208.806 425.027 208.996V223.649C425.027 225.335 426.399 226.706 428.085 226.706H466.528C468.215 226.706 469.591 225.335 469.591 223.649V208.996C469.591 208.806 469.438 208.653 469.248 208.653H469.243ZM456.037 186.385C456.037 186.385 456.041 186.385 456.046 186.385H459.721V208.653H454.684C454.494 208.653 454.341 208.806 454.341 208.996V213.188H440.286V208.996C440.286 208.806 440.133 208.653 439.943 208.653H437.288V186.385H456.032C456.032 186.385 456.037 186.385 456.041 186.385H456.037ZM433.674 182.845H455.694V185.699H436.941C436.751 185.699 436.598 185.852 436.598 186.042V208.653H433.674V182.845ZM468.9 223.649C468.9 224.955 467.835 226.02 466.523 226.02H428.081C426.774 226.02 425.708 224.955 425.708 223.649V209.339H439.591V213.531C439.591 213.721 439.744 213.874 439.934 213.874H454.674C454.864 213.874 455.017 213.721 455.017 213.531V209.339H468.9V223.649Z" fill="black" stroke="black" stroke-miterlimit="10"/>
<path d="M453.391 218.33C453.201 218.33 453.048 218.483 453.048 218.673V220.531H441.565V218.673C441.565 218.483 441.412 218.33 441.222 218.33C441.032 218.33 440.879 218.483 440.879 218.673V220.874C440.879 221.064 441.032 221.216 441.222 221.216H453.391C453.581 221.216 453.734 221.064 453.734 220.874V218.673C453.734 218.483 453.581 218.33 453.391 218.33Z" fill="black" stroke="black" stroke-miterlimit="10"/>
<path d="M440.527 191.499H456.477C456.667 191.499 456.82 191.346 456.82 191.156C456.82 190.966 456.667 190.813 456.477 190.813H440.527C440.337 190.813 440.184 190.966 440.184 191.156C440.184 191.346 440.337 191.499 440.527 191.499Z" fill="black" stroke="black" stroke-miterlimit="10"/>
<path d="M440.527 195.742H456.477C456.667 195.742 456.82 195.589 456.82 195.399C456.82 195.21 456.667 195.057 456.477 195.057H440.527C440.337 195.057 440.184 195.21 440.184 195.399C440.184 195.589 440.337 195.742 440.527 195.742Z" fill="black" stroke="black" stroke-miterlimit="10"/>
<path d="M440.527 199.981H456.477C456.667 199.981 456.82 199.828 456.82 199.638C456.82 199.448 456.667 199.295 456.477 199.295H440.527C440.337 199.295 440.184 199.448 440.184 199.638C440.184 199.828 440.337 199.981 440.527 199.981Z" fill="black" stroke="black" stroke-miterlimit="10"/>
<path d="M440.527 204.224H456.477C456.667 204.224 456.82 204.072 456.82 203.882C456.82 203.692 456.667 203.539 456.477 203.539H440.527C440.337 203.539 440.184 203.692 440.184 203.882C440.184 204.072 440.337 204.224 440.527 204.224Z" fill="black" stroke="black" stroke-miterlimit="10"/>
<path d="M465.485 280.23C465.434 279.804 465.068 279.48 464.642 279.48C455.022 279.48 444.383 272.035 444.271 271.961C443.975 271.757 443.581 271.757 443.289 271.961C443.178 272.04 432.543 279.48 422.919 279.48C422.492 279.48 422.126 279.804 422.075 280.23C417.863 314.645 443.27 322.849 443.525 322.933C443.609 322.96 443.688 322.965 443.771 322.965C443.854 322.965 443.942 322.956 444.017 322.933C444.271 322.854 469.684 314.654 465.476 280.23H465.485ZM443.78 321.219C441.083 320.297 420.24 312.092 423.683 281.175C432.52 280.86 441.579 275.171 443.78 273.698C445.991 275.171 455.05 280.86 463.877 281.175C467.316 312.092 446.468 320.297 443.78 321.219Z" fill="black"/>
<path d="M460.856 283.445C454.016 282.421 447.497 278.961 444.225 276.992C443.952 276.83 443.609 276.83 443.345 276.992C440.069 278.961 433.553 282.426 426.714 283.445C426.311 283.505 426.014 283.829 425.991 284.228C424.457 308.122 438.956 316.359 443.442 318.319C443.553 318.37 443.664 318.388 443.785 318.388C443.905 318.388 444.026 318.36 444.132 318.309C448.609 316.322 463.103 308.002 461.593 284.219C461.565 283.816 461.268 283.487 460.87 283.426L460.861 283.445H460.856ZM443.771 316.614C439.244 314.534 426.524 306.705 427.64 285.029C434.225 283.894 440.384 280.721 443.78 278.72C447.168 280.716 453.335 283.894 459.92 285.029C461.018 306.612 448.294 314.506 443.776 316.614H443.771Z" fill="black"/>
<path d="M443.78 287.151C438.604 287.151 434.397 291.353 434.397 296.532C434.397 301.711 438.609 305.913 443.78 305.913C448.952 305.913 453.164 301.711 453.164 296.532C453.164 291.353 448.952 287.151 443.78 287.151ZM443.78 304.208C439.55 304.208 436.102 300.761 436.102 296.532C436.102 292.302 439.55 288.856 443.78 288.856C448.011 288.856 451.459 292.302 451.459 296.532C451.459 300.761 448.011 304.208 443.78 304.208Z" fill="black"/>
<path d="M447.404 292.719L442.126 298.714L440.106 296.768C439.763 296.444 439.225 296.453 438.901 296.796C438.576 297.139 438.586 297.676 438.929 298L441.598 300.558C441.76 300.71 441.973 300.798 442.186 300.798H442.219C442.45 300.789 442.673 300.687 442.826 300.507L448.692 293.845C448.998 293.498 448.965 292.951 448.613 292.641C448.261 292.33 447.719 292.358 447.408 292.719H447.399H447.404Z" fill="black"/>
<path d="M426.51 217.112L371.348 217.228L371.242 118.185L371.348 217.228" stroke="#4648C4" stroke-width="2" stroke-miterlimit="10"/>
<path d="M424.267 120.436H371.307V34.2991H436.598" stroke="#4648C4" stroke-width="2" stroke-miterlimit="10"/>
<path d="M371.367 217.228V311.161H428.692" stroke="#4648C4" stroke-width="2" stroke-miterlimit="10"/>
<path d="M370.505 170.764H319.329" stroke="#4648C4" stroke-width="2" stroke-miterlimit="10"/>
<path d="M340.788 167.493V174.762L348.063 170.486L340.788 167.493Z" fill="#4648C4"/>
<path d="M79.6839 217.112L82.4642 217.117" stroke="#4648C4" stroke-width="2" stroke-miterlimit="10"/>
<path d="M87.9739 217.131L129.308 217.214" stroke="#4648C4" stroke-width="2" stroke-miterlimit="10" stroke-dasharray="11.89 11.89"/>
<path d="M132.065 217.223L134.845 217.228V214.448" stroke="#4648C4" stroke-width="2" stroke-miterlimit="10"/>
<path d="M134.855 208.95L134.947 123.716" stroke="#4648C4" stroke-width="2" stroke-miterlimit="10" stroke-dasharray="11.87 11.87"/>
<path d="M134.947 120.964L134.952 118.185L134.947 120.964Z" stroke="#4648C4" stroke-width="2" stroke-miterlimit="10"/>
<path d="M134.943 126.463L134.85 211.697" stroke="#4648C4" stroke-width="2" stroke-miterlimit="10" stroke-dasharray="11.87 11.87"/>
<path d="M134.845 214.448V217.228" stroke="#4648C4" stroke-width="2" stroke-miterlimit="10"/>
<path d="M79.4753 34.2991H82.2557" stroke="#4648C4" stroke-width="2" stroke-miterlimit="10"/>
<path d="M87.7932 34.2991H129.34" stroke="#4648C4" stroke-width="2" stroke-miterlimit="10" stroke-dasharray="11.95 11.95"/>
<path d="M132.111 34.2991H134.892V37.0786" stroke="#4648C4" stroke-width="2" stroke-miterlimit="10"/>
<path d="M134.892 42.4477V114.97" stroke="#4648C4" stroke-width="2" stroke-miterlimit="10" stroke-dasharray="11.6 11.6"/>
<path d="M134.892 117.657V120.436H132.111" stroke="#4648C4" stroke-width="2" stroke-miterlimit="10"/>
<path d="M126.402 120.436H83.5995" stroke="#4648C4" stroke-width="2" stroke-miterlimit="10" stroke-dasharray="12.31 12.31"/>
<path d="M80.7497 120.436H77.9694" stroke="#4648C4" stroke-width="2" stroke-miterlimit="10"/>
<path d="M134.827 217.228V220.007" stroke="#4648C4" stroke-width="2" stroke-miterlimit="10"/>
<path d="M134.827 225.9V305.436" stroke="#4648C4" stroke-width="2" stroke-miterlimit="10" stroke-dasharray="12.72 12.72"/>
<path d="M134.827 308.382V311.161H132.047" stroke="#4648C4" stroke-width="2" stroke-miterlimit="10"/>
<path d="M126.296 311.161H83.1593" stroke="#4648C4" stroke-width="2" stroke-miterlimit="10" stroke-dasharray="12.41 12.41"/>
<path d="M80.2817 311.161H77.5013" stroke="#4648C4" stroke-width="2" stroke-miterlimit="10"/>
<path d="M135.689 170.764H138.469" stroke="#4648C4" stroke-width="2" stroke-miterlimit="10"/>
<path d="M143.539 170.764H181.55" stroke="#4648C4" stroke-width="2" stroke-miterlimit="10" stroke-dasharray="10.94 10.94"/>
<path d="M184.085 170.764H186.865" stroke="#4648C4" stroke-width="2" stroke-miterlimit="10"/>
<path d="M42.0338 317.383H46.0374C46.3757 317.383 46.6954 317.508 46.9457 317.735L59.0957 328.871C59.5544 329.293 60.1244 329.506 60.7082 329.506C61.0372 329.506 61.3662 329.437 61.686 329.298C62.5711 328.909 63.1225 328.065 63.1225 327.097V287.906C63.1225 286.938 62.5711 286.095 61.686 285.706C60.8009 285.317 59.8046 285.479 59.091 286.137L46.941 297.273C46.6908 297.5 46.3711 297.625 46.0328 297.625H42.0291C39.323 297.625 37.1219 299.826 37.1219 302.531V312.482C37.1219 315.187 39.323 317.387 42.0291 317.387L42.0338 317.383ZM39.4435 302.531C39.4435 301.104 40.6066 299.941 42.0338 299.941H46.0374C46.9549 299.941 47.8354 299.599 48.5073 298.982L60.6573 287.846C60.6573 287.846 60.699 287.809 60.7499 287.832C60.8009 287.855 60.8009 287.888 60.8009 287.911V327.102C60.8009 327.13 60.8009 327.157 60.7499 327.181C60.699 327.204 60.6758 327.181 60.6573 327.167L48.5073 316.03C47.8307 315.409 46.9549 315.071 46.0374 315.071H42.0338C40.6066 315.071 39.4435 313.908 39.4435 312.482V302.531Z" fill="black"/>
<path d="M68.0715 317.939C73.1177 311.893 73.1177 303.119 68.0715 297.074L66.2921 298.556C70.6201 303.74 70.6201 311.268 66.2921 316.452L68.0715 317.934V317.939Z" fill="black"/>
<path d="M73.4374 291.255L71.6766 292.761C78.9749 301.308 78.9749 313.709 71.6766 322.256L73.4374 323.762C81.4772 314.344 81.4772 300.678 73.4374 291.26V291.255Z" fill="black"/>
<path d="M160.091 170.866L153.58 174.623V167.109L160.091 170.866Z" fill="#4648C4"/>
<g clip-path="url(#clip0_218_1641)">
<path d="M450.684 106.246C450.783 106.246 450.881 106.245 450.983 106.244C451.31 106.242 451.636 106.242 451.962 106.242C452.19 106.241 452.417 106.241 452.645 106.24C453.122 106.239 453.599 106.239 454.076 106.239C454.625 106.24 455.174 106.238 455.723 106.234C456.253 106.231 456.784 106.231 457.314 106.231C457.539 106.231 457.763 106.23 457.988 106.229C458.303 106.227 458.618 106.228 458.934 106.229C459.025 106.228 459.117 106.227 459.211 106.226C460.049 106.235 460.803 106.477 461.435 107.041C462.102 107.783 462.254 108.577 462.246 109.548C462.246 109.655 462.247 109.762 462.247 109.872C462.247 110.096 462.247 110.32 462.245 110.544C462.242 110.887 462.245 111.23 462.248 111.573C462.247 111.792 462.247 112.01 462.246 112.229C462.247 112.331 462.248 112.434 462.249 112.539C462.237 113.326 462.237 113.326 461.975 113.597C461.674 113.805 461.529 113.853 461.168 113.855C461.083 113.856 460.997 113.857 460.91 113.858C460.816 113.858 460.722 113.858 460.625 113.859C460.477 113.86 460.477 113.86 460.326 113.861C459.998 113.863 459.671 113.865 459.343 113.866C459.231 113.866 459.119 113.867 459.003 113.867C458.532 113.869 458.061 113.871 457.59 113.872C456.917 113.873 456.244 113.876 455.57 113.881C455.039 113.885 454.507 113.886 453.976 113.887C453.75 113.887 453.525 113.889 453.3 113.891C452.983 113.894 452.667 113.894 452.35 113.893C452.258 113.895 452.166 113.896 452.071 113.897C451.2 113.89 450.455 113.625 449.795 113.051C449.643 112.859 449.643 112.859 449.515 112.661C449.45 112.563 449.45 112.563 449.385 112.463C449.114 111.992 449.048 111.564 449.004 111.029C448.6 111.038 448.197 111.047 447.794 111.057C447.657 111.061 447.52 111.064 447.382 111.066C447.185 111.07 446.987 111.075 446.789 111.081C446.729 111.082 446.668 111.083 446.605 111.084C446.232 111.095 445.905 111.109 445.576 111.293C445.417 111.786 445.374 112.239 445.372 112.754C445.371 112.826 445.371 112.898 445.37 112.972C445.367 113.208 445.365 113.444 445.364 113.68C445.362 113.844 445.361 114.009 445.359 114.173C445.354 114.604 445.351 115.036 445.348 115.467C445.343 115.985 445.338 116.503 445.333 117.022C445.325 117.807 445.319 118.593 445.313 119.379C446.531 119.379 447.749 119.379 449.004 119.379C448.994 118.737 448.994 118.737 448.98 118.096C448.973 117.217 448.973 117.217 449.268 116.83C449.747 116.509 450.196 116.529 450.753 116.532C450.848 116.532 450.944 116.531 451.042 116.531C451.357 116.53 451.673 116.53 451.988 116.531C452.208 116.531 452.428 116.531 452.648 116.531C453.108 116.53 453.569 116.531 454.03 116.532C454.502 116.533 454.974 116.533 455.446 116.532C456.017 116.53 456.588 116.53 457.159 116.531C457.376 116.531 457.593 116.531 457.81 116.53C458.115 116.53 458.419 116.531 458.723 116.532C458.857 116.531 458.857 116.531 458.993 116.531C459.906 116.539 460.693 116.76 461.396 117.357C462.108 118.108 462.228 118.874 462.226 119.874C462.226 119.98 462.227 120.085 462.227 120.193C462.228 120.415 462.227 120.636 462.227 120.858C462.226 121.197 462.228 121.536 462.231 121.875C462.231 122.091 462.231 122.306 462.231 122.522C462.232 122.623 462.233 122.725 462.234 122.829C462.228 123.53 462.228 123.53 462.02 123.879C461.748 124.113 461.599 124.136 461.248 124.138C461.117 124.139 461.117 124.139 460.984 124.14C460.889 124.14 460.793 124.14 460.694 124.141C460.593 124.141 460.493 124.142 460.389 124.142C460.055 124.144 459.72 124.145 459.386 124.146C459.215 124.146 459.215 124.146 459.04 124.147C458.498 124.149 457.956 124.15 457.414 124.151C456.789 124.152 456.165 124.154 455.54 124.157C455.057 124.16 454.574 124.161 454.091 124.162C453.802 124.162 453.514 124.163 453.226 124.165C452.903 124.167 452.581 124.167 452.258 124.166C452.117 124.168 452.117 124.168 451.972 124.17C451.125 124.164 450.405 123.941 449.779 123.35C449.249 122.716 449.095 122.13 449.004 121.312C447.786 121.312 446.568 121.312 445.313 121.312C445.323 122.451 445.323 122.451 445.335 123.59C445.34 124.055 445.346 124.52 445.35 124.985C445.353 125.36 445.357 125.735 445.362 126.11C445.363 126.252 445.365 126.395 445.366 126.538C445.367 126.738 445.37 126.939 445.372 127.14C445.374 127.254 445.375 127.367 445.376 127.485C445.403 127.857 445.463 128.164 445.576 128.52C445.954 128.731 446.364 128.725 446.789 128.732C446.885 128.734 446.885 128.734 446.982 128.737C447.184 128.742 447.385 128.746 447.587 128.75C447.724 128.754 447.861 128.757 447.999 128.761C448.334 128.769 448.669 128.776 449.004 128.783C449.003 128.725 449.001 128.666 449 128.606C448.994 128.339 448.991 128.072 448.987 127.805C448.985 127.713 448.983 127.621 448.981 127.527C448.972 126.635 448.972 126.635 449.268 126.234C449.688 125.877 450.161 125.932 450.684 125.934C450.783 125.933 450.881 125.932 450.983 125.932C451.31 125.929 451.636 125.929 451.962 125.929C452.19 125.929 452.417 125.928 452.645 125.927C453.122 125.926 453.599 125.926 454.076 125.927C454.625 125.927 455.174 125.925 455.723 125.922C456.253 125.919 456.784 125.918 457.314 125.919C457.539 125.919 457.763 125.918 457.988 125.916C458.303 125.914 458.618 125.915 458.934 125.917C459.025 125.915 459.117 125.914 459.211 125.913C460.049 125.923 460.803 126.165 461.435 126.729C462.102 127.471 462.254 128.264 462.246 129.236C462.246 129.343 462.247 129.449 462.247 129.559C462.247 129.784 462.247 130.008 462.245 130.232C462.242 130.575 462.245 130.918 462.248 131.261C462.247 131.479 462.247 131.698 462.246 131.916C462.247 132.019 462.248 132.121 462.249 132.227C462.237 133.014 462.237 133.014 461.975 133.284C461.674 133.493 461.529 133.54 461.168 133.543C461.083 133.544 460.997 133.544 460.91 133.545C460.769 133.546 460.769 133.546 460.625 133.546C460.526 133.547 460.428 133.548 460.326 133.548C459.998 133.551 459.671 133.552 459.343 133.553C459.231 133.554 459.119 133.554 459.003 133.555C458.532 133.557 458.061 133.558 457.59 133.559C456.917 133.561 456.244 133.564 455.57 133.569C455.039 133.572 454.507 133.574 453.976 133.574C453.75 133.575 453.525 133.576 453.3 133.578C452.983 133.581 452.667 133.581 452.35 133.581C452.258 133.582 452.166 133.583 452.071 133.585C451.2 133.578 450.455 133.313 449.795 132.738C449.643 132.546 449.643 132.546 449.515 132.348C449.45 132.251 449.45 132.251 449.385 132.151C449.182 131.799 449.084 131.5 449.043 131.097C449.036 131.026 449.028 130.955 449.02 130.881C449.015 130.827 449.01 130.773 449.004 130.717C448.908 130.719 448.813 130.721 448.714 130.724C448.354 130.732 447.995 130.737 447.635 130.741C447.48 130.743 447.325 130.746 447.171 130.75C446.013 130.778 445.089 130.714 444.17 129.926C444.018 129.734 444.018 129.734 443.89 129.536C443.825 129.438 443.825 129.438 443.76 129.338C443.416 128.741 443.365 128.158 443.369 127.479C443.369 127.412 443.369 127.345 443.369 127.276C443.369 127.056 443.37 126.837 443.37 126.617C443.37 126.464 443.371 126.311 443.371 126.158C443.371 125.757 443.372 125.355 443.373 124.954C443.374 124.472 443.374 123.989 443.375 123.507C443.376 122.776 443.377 122.044 443.379 121.312C441.842 121.312 440.304 121.312 438.721 121.312C438.721 120.674 438.721 120.036 438.721 119.379C440.258 119.379 441.795 119.379 443.379 119.379C443.377 118.83 443.375 118.281 443.373 117.715C443.372 117.366 443.371 117.017 443.37 116.668C443.369 116.115 443.368 115.562 443.366 115.009C443.364 114.562 443.363 114.116 443.362 113.67C443.362 113.5 443.361 113.33 443.36 113.161C443.359 112.922 443.359 112.683 443.359 112.444C443.358 112.375 443.358 112.305 443.357 112.234C443.36 111.302 443.59 110.621 444.197 109.914C444.891 109.317 445.534 109.067 446.446 109.079C446.556 109.079 446.556 109.079 446.669 109.079C446.901 109.08 447.134 109.082 447.367 109.085C447.525 109.086 447.684 109.086 447.842 109.087C448.23 109.089 448.617 109.092 449.004 109.096C449.003 109.037 449.001 108.979 449 108.918C448.994 108.652 448.991 108.385 448.987 108.118C448.985 108.026 448.983 107.934 448.981 107.839C448.972 106.948 448.972 106.948 449.268 106.547C449.688 106.19 450.161 106.245 450.684 106.246ZM450.938 108.217C450.933 108.595 450.93 108.974 450.928 109.352C450.927 109.48 450.926 109.609 450.924 109.738C450.922 109.923 450.921 110.108 450.92 110.294C450.919 110.405 450.918 110.517 450.918 110.631C450.944 111.044 451.016 111.353 451.284 111.672C451.544 111.885 451.758 111.919 452.084 111.919C452.156 111.919 452.228 111.919 452.302 111.919C452.381 111.919 452.46 111.918 452.541 111.918C452.624 111.918 452.707 111.918 452.793 111.918C453.069 111.918 453.344 111.917 453.619 111.917C453.81 111.917 454.001 111.916 454.191 111.916C454.694 111.916 455.196 111.915 455.699 111.914C456.211 111.913 456.724 111.913 457.236 111.912C458.242 111.912 459.248 111.91 460.254 111.908C460.265 111.48 460.273 111.051 460.278 110.623C460.28 110.477 460.283 110.332 460.287 110.186C460.292 109.976 460.295 109.766 460.297 109.556C460.299 109.492 460.301 109.427 460.304 109.361C460.304 109.021 460.26 108.794 460.053 108.529C459.74 108.235 459.515 108.206 459.097 108.206C459.025 108.206 458.953 108.206 458.878 108.206C458.8 108.206 458.721 108.206 458.64 108.207C458.557 108.207 458.474 108.207 458.388 108.207C458.113 108.207 457.839 108.208 457.564 108.208C457.373 108.208 457.182 108.208 456.992 108.209C456.49 108.209 455.988 108.21 455.487 108.211C454.975 108.212 454.463 108.212 453.951 108.212C452.946 108.213 451.942 108.215 450.938 108.217ZM450.938 118.5C450.931 118.889 450.926 119.279 450.923 119.668C450.922 119.8 450.92 119.932 450.918 120.064C450.914 120.255 450.913 120.446 450.912 120.637C450.91 120.752 450.909 120.866 450.908 120.984C450.949 121.436 451.044 121.784 451.385 122.096C451.753 122.233 452.091 122.226 452.481 122.221C452.565 122.221 452.649 122.221 452.736 122.221C453.013 122.221 453.29 122.219 453.568 122.217C453.76 122.217 453.953 122.216 454.145 122.216C454.651 122.215 455.157 122.212 455.664 122.21C456.18 122.207 456.697 122.206 457.214 122.204C458.227 122.201 459.24 122.197 460.254 122.191C460.26 121.774 460.265 121.356 460.268 120.939C460.27 120.797 460.272 120.655 460.274 120.513C460.277 120.309 460.278 120.104 460.28 119.9C460.281 119.837 460.282 119.774 460.284 119.709C460.284 119.318 460.251 119.061 459.99 118.764C459.505 118.482 459.083 118.463 458.531 118.47C458.407 118.47 458.407 118.47 458.281 118.47C458.01 118.47 457.74 118.472 457.469 118.474C457.281 118.475 457.093 118.475 456.904 118.475C456.41 118.476 455.916 118.479 455.421 118.482C454.917 118.485 454.412 118.486 453.907 118.487C452.917 118.49 451.927 118.494 450.938 118.5ZM450.938 127.904C450.933 128.283 450.93 128.661 450.928 129.039C450.927 129.168 450.926 129.296 450.924 129.425C450.922 129.61 450.921 129.796 450.92 129.981C450.919 130.093 450.918 130.204 450.918 130.319C450.944 130.732 451.016 131.04 451.284 131.359C451.544 131.573 451.758 131.607 452.084 131.606C452.156 131.606 452.228 131.607 452.302 131.607C452.381 131.606 452.46 131.606 452.541 131.606C452.624 131.606 452.707 131.606 452.793 131.606C453.069 131.606 453.344 131.605 453.619 131.604C453.81 131.604 454.001 131.604 454.191 131.604C454.694 131.604 455.196 131.603 455.699 131.602C456.211 131.601 456.724 131.6 457.236 131.6C458.242 131.599 459.248 131.598 460.254 131.596C460.265 131.167 460.273 130.739 460.278 130.31C460.28 130.165 460.283 130.019 460.287 129.874C460.292 129.664 460.295 129.454 460.297 129.244C460.299 129.179 460.301 129.115 460.304 129.048C460.304 128.708 460.26 128.482 460.053 128.216C459.74 127.922 459.515 127.893 459.097 127.894C459.025 127.894 458.953 127.893 458.878 127.893C458.8 127.894 458.721 127.894 458.64 127.894C458.557 127.894 458.474 127.894 458.388 127.894C458.113 127.894 457.839 127.895 457.564 127.896C457.373 127.896 457.182 127.896 456.992 127.896C456.49 127.896 455.988 127.897 455.487 127.898C454.975 127.899 454.463 127.9 453.951 127.9C452.946 127.901 451.942 127.902 450.938 127.904Z" fill="black"/>
<path d="M431.21 95.9774C431.292 95.9768 431.375 95.9763 431.46 95.9757C431.55 95.9759 431.641 95.9762 431.735 95.9765C431.831 95.9761 431.927 95.9757 432.026 95.9753C432.35 95.9742 432.674 95.9743 432.998 95.9745C433.23 95.9739 433.462 95.9733 433.693 95.9727C434.258 95.9712 434.824 95.9707 435.389 95.9706C435.848 95.9705 436.308 95.9702 436.767 95.9696C438.07 95.9681 439.373 95.9673 440.675 95.9674C440.746 95.9674 440.816 95.9674 440.888 95.9674C440.959 95.9674 441.029 95.9674 441.101 95.9674C442.241 95.9675 443.38 95.9658 444.519 95.9634C445.689 95.9608 446.859 95.9596 448.029 95.9598C448.686 95.9598 449.342 95.9593 449.999 95.9575C450.558 95.9559 451.118 95.9555 451.677 95.9567C451.963 95.9572 452.248 95.9571 452.533 95.9557C452.843 95.9544 453.152 95.9552 453.462 95.9565C453.597 95.9552 453.596 95.9552 453.733 95.9538C454.535 95.9615 455.27 96.233 455.859 96.791C456.352 97.4044 456.585 97.9552 456.582 98.7501C456.583 98.8119 456.583 98.8737 456.583 98.9374C456.582 99.14 456.581 99.3426 456.58 99.5451C456.579 99.6863 456.579 99.8274 456.579 99.9685C456.578 100.339 456.577 100.709 456.575 101.079C456.573 101.457 456.572 101.836 456.571 102.214C456.569 102.955 456.566 103.696 456.563 104.437C455.924 104.437 455.286 104.437 454.629 104.437C454.628 104.261 454.627 104.085 454.626 103.904C454.623 103.322 454.619 102.739 454.613 102.157C454.609 101.804 454.606 101.451 454.605 101.098C454.604 100.757 454.601 100.416 454.597 100.076C454.595 99.9456 454.595 99.8157 454.594 99.6858C454.594 99.5036 454.592 99.3215 454.589 99.1393C454.588 99.0356 454.587 98.932 454.587 98.8252C454.532 98.4939 454.422 98.3474 454.189 98.1094C453.988 98.0087 453.876 98.0101 453.652 98.0093C453.575 98.0088 453.499 98.0083 453.421 98.0078C453.336 98.0077 453.252 98.0077 453.165 98.0076C453.076 98.0071 452.987 98.0067 452.895 98.0063C452.594 98.0049 452.294 98.0042 451.993 98.0034C451.778 98.0026 451.563 98.0017 451.349 98.0008C450.885 97.9989 450.422 97.9973 449.958 97.9959C449.288 97.9939 448.618 97.9914 447.949 97.9889C446.862 97.9847 445.775 97.9809 444.688 97.9773C443.632 97.9738 442.576 97.9702 441.52 97.9663C441.455 97.9661 441.39 97.9658 441.323 97.9656C440.996 97.9644 440.67 97.9632 440.343 97.962C437.635 97.952 434.926 97.9426 432.217 97.9336C432.218 97.9979 432.218 98.0622 432.219 98.1285C432.226 98.7374 432.232 99.3463 432.235 99.9553C432.237 100.268 432.239 100.581 432.243 100.894C432.248 101.255 432.25 101.616 432.251 101.976C432.253 102.087 432.255 102.199 432.257 102.313C432.257 102.956 432.191 103.439 431.865 103.998C431.825 104.068 431.785 104.138 431.743 104.211C431.295 104.82 430.746 105.194 430.02 105.404C429.756 105.425 429.756 105.425 429.476 105.424C429.37 105.424 429.265 105.424 429.156 105.424C428.987 105.423 428.987 105.423 428.814 105.421C428.697 105.421 428.58 105.421 428.462 105.421C428.154 105.42 427.847 105.418 427.539 105.416C427.224 105.415 426.91 105.414 426.595 105.413C425.979 105.411 425.362 105.408 424.746 105.404C424.749 109.607 424.754 113.809 424.762 118.012C424.763 118.508 424.764 119.003 424.764 119.499C424.765 119.598 424.765 119.697 424.765 119.798C424.768 121.398 424.769 122.998 424.77 124.597C424.771 126.238 424.774 127.878 424.777 129.519C424.779 130.532 424.781 131.545 424.781 132.558C424.781 133.252 424.782 133.946 424.784 134.64C424.785 135.04 424.786 135.441 424.785 135.842C424.785 136.208 424.785 136.575 424.788 136.942C424.788 137.075 424.788 137.207 424.787 137.34C424.786 137.521 424.788 137.701 424.789 137.881C424.79 137.981 424.79 138.081 424.79 138.185C424.844 138.51 424.958 138.656 425.186 138.891C425.412 139.004 425.575 138.99 425.829 138.99C425.979 138.991 425.979 138.991 426.132 138.991C426.243 138.991 426.353 138.991 426.467 138.991C426.585 138.992 426.703 138.992 426.821 138.992C427.147 138.993 427.472 138.994 427.798 138.994C428.148 138.994 428.499 138.995 428.849 138.996C429.696 138.998 430.544 138.998 431.391 138.999C431.789 139 432.188 139 432.587 139.001C433.911 139.002 435.236 139.003 436.56 139.004C436.904 139.004 437.248 139.004 437.592 139.004C437.72 139.005 437.72 139.005 437.851 139.005C439.236 139.005 440.622 139.008 442.007 139.01C443.428 139.013 444.85 139.015 446.271 139.015C447.069 139.015 447.868 139.016 448.666 139.018C449.346 139.02 450.026 139.021 450.706 139.02C451.053 139.02 451.4 139.02 451.747 139.022C452.064 139.023 452.382 139.023 452.699 139.022C452.869 139.021 453.038 139.023 453.208 139.024C453.359 139.023 453.359 139.023 453.513 139.022C453.643 139.022 453.643 139.022 453.776 139.022C454.081 138.966 454.23 138.839 454.453 138.627C454.59 138.354 454.562 138.062 454.569 137.761C454.572 137.659 454.572 137.659 454.574 137.555C454.58 137.337 454.585 137.12 454.59 136.902C454.594 136.755 454.598 136.607 454.602 136.46C454.611 136.098 454.62 135.737 454.629 135.375C455.267 135.375 455.905 135.375 456.563 135.375C456.571 135.861 456.578 136.347 456.582 136.834C456.584 136.999 456.586 137.164 456.589 137.329C456.593 137.567 456.595 137.806 456.597 138.044C456.6 138.154 456.6 138.154 456.602 138.265C456.603 139.021 456.294 139.745 455.772 140.297C455.207 140.751 454.665 141.022 453.929 141.023C453.826 141.023 453.722 141.024 453.616 141.024C453.503 141.024 453.39 141.024 453.274 141.024C453.152 141.024 453.031 141.024 452.909 141.025C452.575 141.026 452.241 141.026 451.907 141.026C451.546 141.026 451.186 141.026 450.826 141.027C450.12 141.029 449.414 141.029 448.708 141.029C448.134 141.029 447.56 141.03 446.987 141.03C445.36 141.032 443.733 141.033 442.105 141.033C442.018 141.033 441.93 141.033 441.84 141.033C441.752 141.033 441.664 141.033 441.574 141.033C440.15 141.032 438.727 141.034 437.304 141.037C435.843 141.039 434.381 141.04 432.92 141.04C432.099 141.04 431.279 141.041 430.458 141.043C429.76 141.044 429.061 141.045 428.363 141.043C428.007 141.043 427.65 141.043 427.294 141.044C426.968 141.046 426.641 141.045 426.315 141.044C426.141 141.043 425.968 141.045 425.794 141.046C425.16 141.041 424.682 140.969 424.131 140.648C424.073 140.615 424.016 140.582 423.957 140.548C423.35 140.177 423.004 139.56 422.813 138.891C422.79 138.602 422.79 138.602 422.789 138.283C422.788 138.224 422.788 138.165 422.787 138.104C422.786 137.905 422.786 137.707 422.786 137.508C422.785 137.365 422.785 137.221 422.784 137.077C422.782 136.682 422.781 136.287 422.781 135.892C422.78 135.466 422.778 135.04 422.776 134.614C422.772 133.586 422.77 132.557 422.768 131.529C422.767 131.141 422.767 130.754 422.766 130.367C422.762 128.659 422.759 126.952 422.757 125.245C422.757 124.827 422.756 124.409 422.756 123.991C422.756 123.888 422.756 123.784 422.755 123.677C422.754 121.994 422.748 120.312 422.742 118.629C422.735 116.902 422.732 115.174 422.731 113.447C422.73 112.477 422.729 111.507 422.724 110.537C422.719 109.711 422.717 108.885 422.719 108.059C422.72 107.638 422.72 107.217 422.716 106.796C422.712 106.41 422.712 106.024 422.716 105.638C422.716 105.498 422.715 105.359 422.713 105.22C422.702 104.54 422.719 104.024 423.192 103.492C423.327 103.365 423.464 103.241 423.604 103.119C423.723 102.997 423.843 102.875 423.96 102.751C424.082 102.629 424.204 102.507 424.327 102.385C424.394 102.317 424.461 102.25 424.531 102.18C424.75 101.96 424.97 101.74 425.19 101.521C425.344 101.367 425.498 101.213 425.652 101.059C425.973 100.738 426.294 100.417 426.615 100.096C427.027 99.6845 427.439 99.2726 427.85 98.8606C428.167 98.5433 428.484 98.2262 428.802 97.9092C428.954 97.7573 429.106 97.6054 429.257 97.4534C429.469 97.2418 429.68 97.0304 429.892 96.8192C429.986 96.7248 429.986 96.7248 430.082 96.6285C430.14 96.5711 430.198 96.5137 430.257 96.4546C430.332 96.3797 430.332 96.3797 430.408 96.3034C430.679 96.0542 430.851 95.978 431.21 95.9774ZM429.814 99.7096C429.733 99.7902 429.652 99.8709 429.569 99.954C429.48 100.043 429.391 100.132 429.302 100.221C429.212 100.312 429.121 100.402 429.031 100.492C428.841 100.682 428.651 100.872 428.461 101.062C428.218 101.307 427.973 101.55 427.729 101.794C427.542 101.981 427.355 102.168 427.169 102.355C427.079 102.445 426.989 102.535 426.898 102.625C426.773 102.75 426.647 102.876 426.522 103.002C426.451 103.073 426.379 103.145 426.305 103.219C426.142 103.356 426.142 103.356 426.152 103.471C426.618 103.477 427.084 103.482 427.55 103.485C427.709 103.487 427.867 103.488 428.025 103.491C428.254 103.494 428.482 103.495 428.71 103.496C428.78 103.498 428.851 103.499 428.923 103.501C429.351 103.501 429.659 103.462 430.02 103.207C430.319 102.783 430.319 102.397 430.309 101.898C430.308 101.788 430.308 101.788 430.308 101.675C430.306 101.442 430.303 101.21 430.3 100.977C430.298 100.818 430.297 100.66 430.296 100.501C430.293 100.114 430.289 99.727 430.283 99.3398C430.101 99.3398 429.931 99.593 429.814 99.7096Z" fill="black"/>
<path d="M437.173 107.233C437.244 107.233 437.316 107.233 437.39 107.234C437.62 107.235 437.849 107.237 438.078 107.239C438.233 107.24 438.389 107.241 438.544 107.241C438.925 107.243 439.306 107.247 439.688 107.25C439.688 107.888 439.688 108.526 439.688 109.184C439.078 109.184 438.469 109.184 437.842 109.184C437.846 109.369 437.85 109.554 437.854 109.745C437.857 109.925 437.859 110.106 437.861 110.286C437.863 110.411 437.865 110.536 437.868 110.661C437.873 110.841 437.875 111.021 437.876 111.201C437.878 111.309 437.88 111.417 437.882 111.528C437.834 111.879 437.742 112.014 437.49 112.26C437.208 112.438 436.902 112.559 436.595 112.688C436.475 112.743 436.475 112.743 436.353 112.799C435.834 113.022 435.405 113.137 434.854 112.963C434.615 112.812 434.615 112.812 434.42 112.617C434.311 112.511 434.311 112.511 434.201 112.403C434.126 112.327 434.052 112.251 433.975 112.172C433.891 112.089 433.807 112.006 433.724 111.924C433.513 111.715 433.304 111.505 433.096 111.293C432.536 111.754 432.029 112.262 431.519 112.776C431.433 112.863 431.347 112.949 431.261 113.036C431.052 113.246 430.843 113.456 430.635 113.666C430.756 113.94 430.896 114.123 431.11 114.331C431.168 114.388 431.226 114.445 431.286 114.504C431.347 114.563 431.407 114.622 431.47 114.682C431.59 114.799 431.71 114.917 431.83 115.034C431.883 115.086 431.936 115.137 431.991 115.191C432.322 115.539 432.341 115.779 432.331 116.238C432.287 116.639 432.144 116.98 431.981 117.346C431.951 117.419 431.921 117.492 431.89 117.567C431.709 117.987 431.562 118.249 431.162 118.5C430.862 118.54 430.862 118.54 430.523 118.534C430.414 118.533 430.304 118.533 430.191 118.532C429.984 118.527 429.984 118.527 429.772 118.522C429.112 118.511 429.112 118.511 428.438 118.5C428.438 119.718 428.438 120.936 428.438 122.191C429.224 122.181 429.224 122.181 430.01 122.168C430.158 122.167 430.158 122.167 430.309 122.166C430.459 122.164 430.459 122.164 430.613 122.161C430.939 122.196 431.146 122.285 431.426 122.455C431.928 123.087 432.431 124.15 432.372 124.975C432.222 125.431 431.853 125.736 431.514 126.059C431.431 126.142 431.348 126.225 431.265 126.309C431.057 126.52 430.847 126.73 430.635 126.938C430.777 127.298 431.037 127.538 431.308 127.804C431.381 127.876 431.381 127.876 431.455 127.95C431.61 128.104 431.765 128.257 431.92 128.41C432.025 128.514 432.13 128.618 432.235 128.722C432.492 128.978 432.75 129.232 433.008 129.486C433.467 129.104 433.889 128.699 434.302 128.269C434.636 127.927 434.854 127.754 435.326 127.685C435.905 127.697 436.451 128.012 436.963 128.256C437.055 128.296 437.147 128.336 437.242 128.378C437.531 128.543 437.661 128.681 437.842 128.959C437.882 129.251 437.882 129.251 437.876 129.579C437.876 129.637 437.875 129.695 437.875 129.754C437.873 129.938 437.868 130.121 437.864 130.305C437.862 130.43 437.86 130.555 437.859 130.68C437.855 130.985 437.849 131.29 437.842 131.596C438.451 131.596 439.06 131.596 439.688 131.596C439.688 132.234 439.688 132.872 439.688 133.529C439.246 133.539 438.806 133.548 438.365 133.553C438.215 133.556 438.065 133.559 437.915 133.562C437.699 133.568 437.483 133.57 437.267 133.572C437.167 133.576 437.167 133.576 437.066 133.579C436.711 133.579 436.499 133.544 436.219 133.318C435.878 132.968 435.896 132.729 435.9 132.262C435.9 132.198 435.9 132.134 435.9 132.068C435.901 131.863 435.902 131.658 435.903 131.453C435.903 131.314 435.904 131.175 435.904 131.036C435.905 130.695 435.906 130.354 435.908 130.014C435.614 129.978 435.502 129.988 435.263 130.172C435.194 130.245 435.125 130.317 435.054 130.392C434.939 130.51 434.939 130.51 434.822 130.63C434.705 130.755 434.705 130.755 434.584 130.882C434.428 131.045 434.271 131.207 434.114 131.37C434.045 131.443 433.976 131.515 433.905 131.59C433.625 131.852 433.444 131.938 433.063 131.98C432.52 131.924 432.173 131.574 431.797 131.2C431.718 131.122 431.64 131.044 431.559 130.964C431.474 130.88 431.39 130.796 431.306 130.712C431.219 130.625 431.131 130.537 431.044 130.45C430.861 130.268 430.679 130.086 430.497 129.904C430.264 129.67 430.03 129.438 429.796 129.206C429.615 129.026 429.435 128.846 429.255 128.666C429.169 128.58 429.083 128.494 428.997 128.409C428.876 128.289 428.756 128.169 428.636 128.048C428.568 127.98 428.5 127.912 428.429 127.841C428.177 127.539 428.088 127.303 428.08 126.91C428.25 126.323 428.696 125.972 429.126 125.557C429.186 125.499 429.246 125.441 429.308 125.38C429.43 125.262 429.553 125.145 429.677 125.028C429.734 124.974 429.791 124.919 429.849 124.862C429.901 124.814 429.953 124.765 430.006 124.714C430.13 124.567 430.13 124.567 430.08 124.37C430.06 124.318 430.04 124.266 430.02 124.213C429.934 124.213 429.849 124.212 429.762 124.212C429.444 124.21 429.127 124.205 428.809 124.199C428.672 124.197 428.535 124.196 428.398 124.196C428.2 124.195 428.003 124.191 427.805 124.187C427.744 124.188 427.684 124.188 427.621 124.188C427.129 124.174 426.92 124.03 426.592 123.686C426.479 123.382 426.492 123.075 426.49 122.754C426.489 122.696 426.489 122.639 426.488 122.58C426.487 122.39 426.487 122.2 426.486 122.011C426.486 121.879 426.485 121.746 426.485 121.614C426.484 121.337 426.483 121.06 426.483 120.783C426.482 120.429 426.48 120.075 426.478 119.72C426.476 119.447 426.476 119.174 426.475 118.901C426.475 118.77 426.475 118.64 426.473 118.509C426.472 118.326 426.472 118.143 426.473 117.96C426.472 117.804 426.472 117.804 426.472 117.645C426.508 117.319 426.597 117.109 426.768 116.83C427.164 116.559 427.489 116.535 427.962 116.541C428.023 116.541 428.085 116.541 428.149 116.542C428.344 116.543 428.539 116.547 428.734 116.55C428.867 116.551 429 116.552 429.133 116.554C429.458 116.556 429.783 116.561 430.107 116.566C430.066 116.16 429.925 115.993 429.633 115.715C429.554 115.639 429.476 115.563 429.396 115.485C429.272 115.368 429.272 115.368 429.146 115.248C428.984 115.093 428.822 114.937 428.66 114.781C428.588 114.713 428.516 114.644 428.442 114.573C428.176 114.272 428.088 114.039 428.08 113.639C428.3 112.877 429.103 112.285 429.65 111.738C429.731 111.658 429.812 111.577 429.895 111.494C430.064 111.324 430.233 111.155 430.403 110.986C430.62 110.769 430.837 110.552 431.054 110.335C431.262 110.127 431.47 109.919 431.677 109.711C431.755 109.633 431.833 109.555 431.914 109.475C431.985 109.403 432.057 109.331 432.131 109.258C432.226 109.163 432.226 109.163 432.323 109.066C432.608 108.802 432.858 108.784 433.236 108.793C433.646 108.869 433.871 109.154 434.15 109.447C434.316 109.62 434.481 109.791 434.648 109.962C434.766 110.083 434.882 110.205 434.997 110.328C435.052 110.384 435.106 110.441 435.162 110.499C435.211 110.55 435.259 110.602 435.309 110.654C435.517 110.799 435.66 110.786 435.908 110.766C435.907 110.68 435.905 110.595 435.904 110.506C435.899 110.188 435.896 109.869 435.894 109.551C435.892 109.413 435.891 109.275 435.888 109.138C435.885 108.939 435.884 108.741 435.882 108.543C435.881 108.481 435.88 108.42 435.878 108.357C435.878 107.971 435.934 107.731 436.172 107.426C436.509 107.201 436.782 107.228 437.173 107.233Z" fill="black"/>
<path d="M438.809 114.721C438.809 115.359 438.809 115.997 438.809 116.654C438.469 116.722 438.469 116.722 438.122 116.792C437.122 117.015 436.325 117.468 435.732 118.324C435.165 119.246 435.012 120.158 435.205 121.225C435.486 122.173 435.983 122.963 436.835 123.485C437.499 123.832 438.054 123.953 438.809 124.037C438.809 124.704 438.809 125.371 438.809 126.059C437.045 126.004 435.647 125.409 434.414 124.125C433.366 122.864 432.981 121.364 433.078 119.749C433.208 118.357 433.874 117.184 434.854 116.215C434.922 116.142 434.922 116.142 434.991 116.068C435.993 115.092 437.465 114.721 438.809 114.721Z" fill="black"/>
<path d="M448.125 99.6914C448.471 99.6842 448.817 99.679 449.163 99.6749C449.26 99.6727 449.357 99.6705 449.456 99.6682C450.549 99.6586 451.352 99.8629 452.143 100.629C452.705 101.232 452.884 101.952 452.88 102.764C452.879 102.862 452.879 102.959 452.879 103.06C452.878 103.212 452.878 103.212 452.877 103.366C452.876 103.469 452.876 103.572 452.875 103.678C452.874 103.931 452.873 104.184 452.871 104.437C452.233 104.437 451.595 104.437 450.938 104.437C450.91 103.553 450.91 103.553 450.903 103.278C450.884 102.786 450.852 102.398 450.586 101.977C450.091 101.664 449.583 101.666 449.009 101.652C448.718 101.643 448.426 101.634 448.125 101.625C448.125 100.987 448.125 100.349 448.125 99.6914Z" fill="black"/>
<path d="M444.346 99.6914C444.984 99.6914 445.622 99.6914 446.279 99.6914C446.279 100.329 446.279 100.968 446.279 101.625C445.641 101.625 445.003 101.625 444.346 101.625C444.346 100.987 444.346 100.349 444.346 99.6914Z" fill="black"/>
</g>
<defs>
<clipPath id="clip0_218_1641">
<rect width="45" height="45" fill="white" transform="translate(420 96)"/>
</clipPath>
</defs>
</svg>
