<svg width="172" height="52" viewBox="0 0 172 52" fill="none" xmlns="http://www.w3.org/2000/svg">
<path d="M2.19204 5.62124V51.2888C2.19204 51.7272 1.99567 51.9464 1.6075 51.9464H0.584545C0.194087 51.9464 0 51.7272 0 51.2888V5.62124C0 5.18283 0.194087 4.96362 0.584545 4.96362H1.6075C1.99796 4.96362 2.19204 5.18283 2.19204 5.62124Z" fill="black"/>
<path d="M17.4609 51.9464H16.4379C16.0475 51.9464 15.8534 51.7272 15.8534 51.2888V15.3393C15.8534 14.9008 16.0475 14.6816 16.4379 14.6816H17.4609C17.8513 14.6816 18.0454 14.9008 18.0454 15.3393V18.4812H18.3377C19.7009 15.9489 22.2834 14.6816 26.0829 14.6816H31.49C34.4606 14.6816 36.8354 15.5836 38.6141 17.3852C40.3929 19.189 41.2811 21.6003 41.2811 24.6189V51.2888C41.2811 51.7272 41.0847 51.9464 40.6965 51.9464H39.6736C39.2831 51.9464 39.089 51.7272 39.089 51.2888V24.692C39.089 22.2077 38.4314 20.2599 37.1162 18.8465C35.801 17.4331 33.9263 16.7275 31.49 16.7275H26.2291C23.7927 16.7275 21.8199 17.3852 20.3105 18.7004C18.7989 20.0156 18.0454 21.8925 18.0454 24.3266V51.2888C18.0454 51.7272 17.8491 51.9464 17.4609 51.9464Z" fill="black"/>
<path d="M59.6213 14.6817H66.4897C66.9281 14.6817 67.1473 14.8758 67.1473 15.2663V16.1431C67.1473 16.5336 66.9281 16.7276 66.4897 16.7276H59.6213C59.1829 16.7276 58.9637 16.924 58.9637 17.3122V51.2888C58.9637 51.7273 58.7673 51.9465 58.3791 51.9465H57.3562C56.9657 51.9465 56.7716 51.7273 56.7716 51.2888V17.3122C56.7716 16.924 56.5524 16.7276 56.114 16.7276H51.1454C50.707 16.7276 50.4878 16.5336 50.4878 16.1431V15.2663C50.4878 14.8758 50.707 14.6817 51.1454 14.6817H56.114C56.5524 14.6817 56.7716 14.4876 56.7716 14.0972V10.3707C56.7716 3.84482 59.6441 0.57959 65.3937 0.57959H66.4897C66.9281 0.57959 67.1473 0.773677 67.1473 1.16413V2.04095C67.1473 2.43141 66.9281 2.6255 66.4897 2.6255H65.3937C63.0555 2.6255 61.3978 3.27169 60.4251 4.5618C59.4501 5.85191 58.9637 7.81333 58.9637 10.4438V14.0972C58.9637 14.4876 59.1829 14.6817 59.6213 14.6817Z" fill="black"/>
<path d="M75.9154 51.2888V15.3393C75.9154 14.9008 76.1095 14.6816 76.4999 14.6816H77.5229C77.9134 14.6816 78.1074 14.9008 78.1074 15.3393V51.2888C78.1074 51.7272 77.9134 51.9464 77.5229 51.9464H76.4999C76.1095 51.9464 75.9154 51.7272 75.9154 51.2888Z" fill="black"/>
<path d="M92.8672 16.7276H88.0447C87.6063 16.7276 87.3871 16.5335 87.3871 16.1431V15.2662C87.3871 14.8758 87.6063 14.6817 88.0447 14.6817H92.8672C93.3056 14.6817 93.5248 14.4876 93.5248 14.0972V8.39785C93.5248 7.95944 93.7189 7.74023 94.1093 7.74023H95.1323C95.5228 7.74023 95.7168 7.95944 95.7168 8.39785V14.0972C95.7168 14.4876 95.9361 14.6817 96.3745 14.6817H105.8C106.239 14.6817 106.458 14.8758 106.458 15.2662V16.1431C106.458 16.5335 106.239 16.7276 105.8 16.7276H96.3745C95.9361 16.7276 95.7168 16.924 95.7168 17.3122V42.1553C95.7168 44.5917 96.4338 46.4914 97.8724 47.8546C99.3086 49.2201 101.27 49.9005 103.754 49.9005H106.531C106.969 49.9005 107.189 50.0946 107.189 50.4851V51.3619C107.189 51.7523 106.969 51.9464 106.531 51.9464H103.754C100.733 51.9464 98.2742 51.0696 96.3745 49.316C94.4747 47.5623 93.5248 45.2013 93.5248 42.2284V17.3122C93.5248 16.924 93.3056 16.7276 92.8672 16.7276Z" fill="black"/>
<path d="M137.293 50.485V51.3618C137.293 51.7523 137.073 51.9464 136.635 51.9464H126.259C123.286 51.9464 120.912 51.0467 119.135 49.2428C117.356 47.4413 116.468 45.03 116.468 42.0091V24.6189C116.468 21.6003 117.356 19.189 119.135 17.3852C120.914 15.5836 123.286 14.6816 126.259 14.6816H136.635C137.073 14.6816 137.293 14.8757 137.293 15.2662V16.143C137.293 16.5335 137.073 16.7275 136.635 16.7275H126.259C123.823 16.7275 121.948 17.4354 120.633 18.8465C119.318 20.2599 118.66 22.2077 118.66 24.692V41.936C118.66 44.4204 119.318 46.3704 120.633 47.7815C121.948 49.1949 123.823 49.9005 126.259 49.9005H136.635C137.073 49.9005 137.293 50.0945 137.293 50.485Z" fill="black"/>
<path d="M148.18 51.9465H147.157C146.766 51.9465 146.572 51.7273 146.572 51.2888V1.2372C146.572 0.798794 146.766 0.57959 147.157 0.57959H148.18C148.57 0.57959 148.764 0.798794 148.764 1.2372V18.4813H149.057C150.42 15.949 153.002 14.6817 156.802 14.6817H162.209C165.18 14.6817 167.554 15.5837 169.333 17.3853C171.112 19.1891 172 21.6004 172 24.619V51.2888C172 51.7273 171.806 51.9465 171.416 51.9465H170.393C170.002 51.9465 169.808 51.7273 169.808 51.2888V24.6921C169.808 22.2077 169.15 20.26 167.835 18.8466C166.52 17.4332 164.645 16.7276 162.209 16.7276H156.948C154.512 16.7276 152.539 17.3853 151.03 18.7005C149.518 20.0157 148.764 21.8926 148.764 24.3267V51.2888C148.764 51.7273 148.568 51.9465 148.18 51.9465Z" fill="black"/>
<path d="M75.9154 8.61718V1.38344C75.9154 0.945034 76.1095 0.72583 76.4999 0.72583H77.5229C77.9134 0.72583 78.1074 0.945034 78.1074 1.38344V8.61718C78.1074 9.05559 77.9134 9.2748 77.5229 9.2748H76.4999C76.1095 9.2748 75.9154 9.05559 75.9154 8.61718Z" fill="#4648CC"/>
</svg>
