<svg width="168" height="146" viewBox="0 0 168 146" fill="none" xmlns="http://www.w3.org/2000/svg">
<g id="infitch design elements3-02">
<g id="Group" opacity="0.75">
<path id="Vector" d="M52.9467 43.0993H79.6418C82.1066 43.0993 84.1575 44.9787 84.4732 47.516C85.1986 53.3799 85.1652 59.298 84.4544 65.1577C84.1471 67.7012 82.0878 69.589 79.623 69.589H52.9676C50.5028 69.589 48.4456 67.6991 48.1362 65.1577C47.4254 59.3064 47.3919 53.3631 48.1174 47.5097C48.431 44.9766 50.4923 43.093 52.9488 43.093L52.9446 43.0993H52.9467ZM79.646 44.9328H52.9467C51.3746 44.9328 50.0575 46.1189 49.861 47.7436C49.1543 53.4571 49.1857 59.2187 49.8798 64.9322C50.0721 66.5589 51.3892 67.7555 52.9655 67.7555H79.6209C81.193 67.7555 82.5101 66.5589 82.7066 64.9343C83.3986 59.2103 83.4321 53.4655 82.7254 47.7415C82.5247 46.1148 81.216 44.9307 79.6397 44.9307H79.646V44.9328Z" fill="#5F5E5E"/>
<path id="Vector_2" d="M71.9211 57.115L63.381 62.816C62.7893 63.2086 62.0242 62.7596 62.0242 62.0455V50.6477C62.0242 49.8875 62.8625 49.4636 63.4312 49.9147L71.9253 55.5781C72.4731 55.9373 72.4584 56.7642 71.9253 57.1192L71.9211 57.115ZM63.7887 60.3686L69.8159 56.3486L63.7887 52.3287V60.3727V60.3686Z" fill="#5F5E5E"/>
</g>
<g id="Group_2" opacity="0.75">
<path id="Vector_3" d="M77.2066 76.637H51.5485C48.4857 76.637 46.0021 78.7419 46 81.3377V103.081C46 105.674 48.4857 107.781 51.5485 107.781H77.2066C80.2694 107.781 82.753 105.676 82.7551 103.081V81.3377C82.7551 78.744 80.2694 76.637 77.2066 76.637ZM47.6516 81.3377C47.6516 79.5146 49.3993 78.0361 51.5506 78.0361H77.2087C79.36 78.0361 81.1035 79.5146 81.1077 81.3377V96.9266L75.2979 92.5517C74.9676 92.3011 74.4575 92.3178 74.1522 92.5914L68.6769 97.4612L63.2873 92.5955C63.1305 92.4535 62.9152 92.3763 62.6894 92.3763H62.6852C62.4594 92.3763 62.242 92.4535 62.0915 92.5914L48.2683 104.847C47.8669 104.319 47.6558 103.707 47.6516 103.081V81.3377ZM49.4244 105.846L62.6789 94.0928L76.2868 106.387H51.5506C50.7959 106.387 50.0558 106.199 49.4286 105.846H49.4244ZM78.3669 106.222L69.8079 98.4886L74.8003 94.0511L81.1077 98.7998V103.085C81.0993 104.526 79.9934 105.796 78.3711 106.222H78.3669Z" fill="#5F5E5E"/>
<path id="Vector_4" d="M67.2829 89.3918C69.5345 89.3918 71.3638 87.8423 71.3638 85.9336C71.3638 84.025 69.5345 82.4755 67.2829 82.4755C65.0313 82.4755 63.202 84.025 63.202 85.9336C63.202 87.8402 65.0313 89.3876 67.2829 89.3918ZM67.2829 83.8746C68.6251 83.8746 69.7143 84.7976 69.7143 85.9336C69.7143 87.0697 68.6251 87.9927 67.2829 87.9927C65.9407 87.9927 64.8515 87.0697 64.8515 85.9336C64.8515 84.7976 65.9407 83.8746 67.2829 83.8746Z" fill="#5F5E5E"/>
</g>
<g id="Group_3" opacity="0.75">
<path id="Vector_5" fill-rule="evenodd" clip-rule="evenodd" d="M118.417 70.1939H90.5975C90.2233 70.1939 89.9202 69.935 89.9202 69.6155V40.7368C89.9202 40.4194 90.2233 40.1583 90.5975 40.1583H95.9641V34.5785C95.9641 34.261 96.2673 34 96.6415 34H118.376C118.75 34 119.053 34.2589 119.053 34.5785V63.6827L119.093 69.6051C119.093 69.7575 119.022 69.9058 118.892 70.0144C118.762 70.1229 118.591 70.1835 118.411 70.1835V70.1919H118.413L118.417 70.1939ZM91.2749 69.035H117.732L117.698 63.6848V35.1611H97.3126V40.7409C97.3126 41.0584 97.0094 41.3194 96.6352 41.3194H91.2749V69.0433V69.037V69.035Z" fill="#5F5E5E"/>
<path id="Vector_6" fill-rule="evenodd" clip-rule="evenodd" d="M96.6349 41.3153H90.5972C90.3337 41.3153 90.0933 41.1838 89.9804 40.9812C89.8675 40.7745 89.9052 40.5385 90.0745 40.3652L96.1164 34.211C96.2983 34.0273 96.6014 33.9542 96.8669 34.0356C97.1366 34.1191 97.3143 34.3363 97.3143 34.5786V40.7327C97.3143 41.0501 97.0112 41.3112 96.6369 41.3112L96.6349 41.3153ZM92.046 40.1563H95.9617V36.1656L92.046 40.1563Z" fill="#5F5E5E"/>
<path id="Vector_7" fill-rule="evenodd" clip-rule="evenodd" d="M112.805 45.5418H96.1577C95.7835 45.5418 95.4803 45.2828 95.4803 44.9633C95.4803 44.6438 95.7835 44.3849 96.1577 44.3849H112.812C113.186 44.3849 113.489 44.6438 113.489 44.9633C113.489 45.2828 113.186 45.5418 112.812 45.5418H112.805Z" fill="#5F5E5E"/>
<path id="Vector_8" fill-rule="evenodd" clip-rule="evenodd" d="M112.805 49.6265H96.1577C95.7835 49.6265 95.4803 49.3676 95.4803 49.0481C95.4803 48.7286 95.7835 48.4696 96.1577 48.4696H112.812C113.186 48.4696 113.489 48.7286 113.489 49.0481C113.489 49.3676 113.186 49.6265 112.812 49.6265H112.805Z" fill="#5F5E5E"/>
<path id="Vector_9" fill-rule="evenodd" clip-rule="evenodd" d="M112.805 53.7096H96.1577C95.7835 53.7096 95.4803 53.4507 95.4803 53.1312C95.4803 52.8117 95.7835 52.5527 96.1577 52.5527H112.812C113.186 52.5527 113.489 52.8117 113.489 53.1312C113.489 53.4507 113.186 53.7096 112.812 53.7096H112.805Z" fill="#5F5E5E"/>
<path id="Vector_10" fill-rule="evenodd" clip-rule="evenodd" d="M112.805 57.8006H96.1577C95.7835 57.8006 95.4803 57.5416 95.4803 57.2221C95.4803 56.9026 95.7835 56.6437 96.1577 56.6437H112.812C113.186 56.6437 113.489 56.9026 113.489 57.2221C113.489 57.5416 113.186 57.8006 112.812 57.8006H112.805Z" fill="#5F5E5E"/>
<path id="Vector_11" fill-rule="evenodd" clip-rule="evenodd" d="M112.805 61.8819H96.1577C95.7835 61.8819 95.4803 61.6229 95.4803 61.3034C95.4803 60.9839 95.7835 60.725 96.1577 60.725H112.812C113.186 60.725 113.489 60.9839 113.489 61.3034C113.489 61.6229 113.186 61.8819 112.812 61.8819H112.805Z" fill="#5F5E5E"/>
<path id="Vector_12" fill-rule="evenodd" clip-rule="evenodd" d="M111.758 65.9676H96.1577C95.7835 65.9676 95.4803 65.7086 95.4803 65.3891C95.4803 65.0696 95.7835 64.8107 96.1577 64.8107H111.758C112.132 64.8107 112.435 65.0696 112.435 65.3891C112.435 65.7086 112.132 65.9676 111.758 65.9676Z" fill="#5F5E5E"/>
</g>
<g id="Group_4" opacity="0.75">
<path id="Vector_13" d="M93.1989 101.798H96.3244C96.5878 101.798 96.8387 101.896 97.031 102.074L106.516 110.759C106.874 111.087 107.319 111.256 107.777 111.256C108.032 111.256 108.291 111.202 108.54 111.093C109.232 110.79 109.66 110.133 109.66 109.377V78.8106C109.66 78.0546 109.23 77.3989 108.54 77.094C107.848 76.7912 107.072 76.9186 106.516 77.4281L97.031 86.1133C96.8366 86.2908 96.5857 86.3889 96.3244 86.3889H93.1989C91.0874 86.3889 89.3689 88.1055 89.3689 90.2146V97.9747C89.3689 100.084 91.0874 101.8 93.1989 101.8V101.798ZM91.1773 90.2125C91.1773 89.0995 92.0846 88.1932 93.1989 88.1932H96.3244C97.0415 88.1932 97.7251 87.9259 98.254 87.4435L107.739 78.7584C107.754 78.7438 107.773 78.727 107.812 78.7458C107.854 78.7646 107.854 78.7876 107.854 78.8085V109.375C107.854 109.395 107.854 109.418 107.812 109.437C107.773 109.456 107.754 109.439 107.739 109.425L98.254 100.74C97.7272 100.257 97.0415 99.9898 96.3244 99.9898H93.1989C92.0846 99.9898 91.1773 99.0835 91.1773 97.9705V90.2105V90.2125Z" fill="#5F5E5E"/>
<path id="Vector_14" d="M113.524 102.231C117.464 97.5153 117.464 90.672 113.524 85.9567L112.135 87.1136C115.516 91.1565 115.516 97.0266 112.135 101.072L113.524 102.228V102.231Z" fill="#5F5E5E"/>
<path id="Vector_15" d="M117.713 81.4189L116.337 82.5926C122.032 89.2562 122.032 98.9312 116.337 105.597L117.713 106.771C123.989 99.4261 123.989 88.7655 117.713 81.421V81.4189Z" fill="#5F5E5E"/>
</g>
<path id="Vector_16" fill-rule="evenodd" clip-rule="evenodd" d="M121.577 20.8679C131.565 27.8875 137.335 39.2421 136.985 51.2126C136.634 63.183 130.21 74.2006 119.836 80.6507C109.463 87.1008 96.4498 88.1584 85.1187 83.4515L78.9274 91.7844C78.7405 92.0285 78.4718 92.2028 78.1564 92.2493C77.841 92.2958 77.5373 92.226 77.2803 92.0517L74.7921 90.3084L70.505 96.0728L72.9932 97.8161C73.5189 98.188 73.6356 98.897 73.2501 99.4083L52.4686 127.336C49.5249 131.299 43.8359 132.182 39.7707 129.323C35.6938 126.476 34.7827 120.944 37.7264 116.992L58.508 89.0765C58.6949 88.8324 58.9636 88.6581 59.279 88.6116C59.5944 88.5651 59.8981 88.6349 60.1551 88.8092L62.6432 90.5525L66.9304 84.788L64.4422 83.0448C63.9166 82.6729 63.7997 81.9639 64.1852 81.4526L70.6452 72.7711C62.3746 62.7182 60.2252 49.1555 65.0029 37.1385C69.7807 25.1332 80.7731 16.4981 93.8565 14.4643C103.611 12.9302 113.587 15.2313 121.6 20.8679H121.577ZM56.3586 95.8288L67.2809 103.499L70.6218 99.0132L59.6995 91.3428L56.3586 95.8404V95.8288ZM65.9024 105.347L54.9801 97.6767L39.6072 118.329C37.4227 121.257 38.1119 125.36 41.1258 127.475C44.1396 129.59 48.3683 128.928 50.5411 125.999L65.9141 105.347H65.9024ZM81.9296 37.6847C82.829 36.4877 83.8337 35.3836 84.9668 34.3841C85.4574 33.9541 85.4808 33.2452 85.0486 32.7687C84.6164 32.2922 83.8687 32.269 83.3898 32.6873C82.7706 33.2336 82.1749 33.8263 81.6142 34.4306C81.0535 35.0466 80.5278 35.6742 80.0255 36.3482C79.6516 36.8596 79.7685 37.5801 80.2825 37.9404C80.8082 38.3123 81.5441 38.1961 81.9296 37.6847ZM91.1113 30.5489C98.2021 27.597 106.367 28.4919 112.629 32.8849C113.154 33.2568 113.89 33.1406 114.276 32.6292C114.65 32.1179 114.533 31.3973 114.019 31.037C107.092 26.1675 98.0619 25.1913 90.2001 28.4454C89.6044 28.6894 89.324 29.3635 89.581 29.9446C89.838 30.5257 90.5272 30.793 91.123 30.5489H91.1113ZM117.78 25.9583C110.024 20.5077 100.094 18.869 90.9244 21.542C81.7543 24.215 74.3832 30.8511 70.9722 39.5326C67.5612 48.2141 68.5074 57.9532 73.5305 65.8677C78.5536 73.7705 87.0694 78.9771 96.5899 79.9301C106.11 80.8715 115.549 77.4779 122.126 70.7256C128.691 63.9733 131.658 54.6294 130.128 45.4481C128.843 37.615 124.392 30.607 117.78 25.9699V25.9583ZM127.815 45.8084C126.413 37.3245 121.028 29.9678 113.248 25.9002C105.48 21.8209 96.1811 21.4839 88.1208 25.0053C80.0605 28.5151 74.1263 35.465 72.082 43.8211C70.0377 52.1655 72.117 60.9749 77.6891 67.6226C83.2729 74.2819 91.7187 78.0358 100.562 77.7917C109.393 77.5476 117.617 73.3289 122.792 66.3674C127.219 60.4403 129.03 53.0372 127.815 45.8084ZM70.1195 77.3501L81.0417 85.0205L82.9342 82.4753C79.1961 80.639 75.8084 78.1985 72.8997 75.2814L72.0937 74.7003L70.1195 77.3501ZM79.6633 86.8916L68.7411 79.2212L66.7669 81.871L77.6891 89.5414L79.6633 86.8916ZM72.853 88.9603L68.8228 86.1362L64.5357 91.9006L68.5775 94.7363L72.8646 88.9719L72.853 88.9603ZM134.193 44.8205C132.721 35.9415 127.686 27.9921 120.187 22.739C112.687 17.4744 103.342 15.3127 94.2069 16.7422C85.0719 18.1717 76.8948 23.0645 71.4629 30.3397C66.0426 37.6266 63.8231 46.7033 65.2833 55.5824C66.7552 64.4614 71.7899 72.4108 79.2895 77.6639C86.7891 82.9286 96.1344 85.0902 105.281 83.6607C114.428 82.2312 122.593 77.3384 128.025 70.0632C133.457 62.7763 135.665 53.6996 134.205 44.8205H134.193Z" fill="#5F5E5E" stroke="#231F20" stroke-miterlimit="10"/>
</g>
</svg>
