<svg width="91" height="91" viewBox="0 0 91 91" fill="none" xmlns="http://www.w3.org/2000/svg">
<rect width="91" height="91" fill="#E5E5E5"/>
<g id="Homepage">
<rect width="1440" height="3229" transform="translate(-530 -1155)" fill="white"/>
<g id="Frame 21699">
<g id="Frame 21744">
<rect width="1440" height="699.41" transform="translate(-530 -395)" fill="white"/>
<g id="Background">
<rect x="-430.5" y="-394.5" width="1241" height="698.41" rx="7.5" fill="#F5F5F5"/>
<rect x="-430.5" y="-394.5" width="1241" height="698.41" rx="7.5" stroke="#DCDCDC"/>
<g id="Frame 21677">
<g id="Frame 21677_2">
<g id="Background_2">
<rect x="-83.6348" y="-45.6582" width="257.276" height="182.175" rx="4.08965" fill="white"/>
<rect x="-83.6348" y="-45.6582" width="257.276" height="182.175" rx="4.08965" stroke="#D9D9D9" stroke-width="0.743573"/>
<g id="Simplification" clip-path="url(#clip0_102_1070)">
<path id="Vector" d="M62.0502 20.7203C62.2497 20.7188 62.4492 20.7173 62.6548 20.7158C63.3149 20.7116 63.9748 20.7114 64.6349 20.7116C65.0948 20.7104 65.5546 20.709 66.0144 20.7075C66.9792 20.7052 67.9439 20.7048 68.9086 20.7059C70.0191 20.7071 71.1295 20.703 72.2399 20.6964C73.3124 20.6903 74.3848 20.6892 75.4573 20.6899C75.9114 20.6896 76.3655 20.6879 76.8197 20.6847C77.4573 20.6807 78.0946 20.6825 78.7322 20.6856C78.9176 20.6833 79.103 20.6809 79.294 20.6785C80.9889 20.6976 82.5119 21.1876 83.7906 22.3279C85.1391 23.8287 85.4478 25.433 85.4305 27.3975C85.4314 27.6136 85.4322 27.8296 85.4331 28.0522C85.4337 28.5054 85.4321 28.9585 85.4283 29.4117C85.4236 30.1056 85.4283 30.7991 85.434 31.493C85.4334 31.9348 85.4323 32.3766 85.4305 32.8184C85.4323 33.0254 85.4341 33.2324 85.436 33.4457C85.4128 35.0377 85.4128 35.0377 84.883 35.5841C84.2742 36.0061 83.9804 36.1027 83.2505 36.1075C83.0781 36.109 82.9057 36.1105 82.7281 36.1121C82.5383 36.1129 82.3485 36.1136 82.1529 36.1144C81.8538 36.1166 81.8538 36.1166 81.5485 36.1188C80.8856 36.1232 80.2227 36.1262 79.5597 36.1287C79.3333 36.1297 79.1069 36.1306 78.8736 36.1316C77.9209 36.1354 76.9683 36.1388 76.0157 36.1408C74.6541 36.1436 73.2926 36.1495 71.9311 36.1597C70.8561 36.1674 69.7811 36.1702 68.7061 36.1713C68.2504 36.1725 67.7948 36.1752 67.3392 36.1795C66.699 36.1852 66.059 36.1851 65.4188 36.1838C65.2326 36.1867 65.0464 36.1897 64.8545 36.1927C63.0938 36.178 61.5876 35.6425 60.2519 34.4805C59.9444 34.0924 59.9444 34.0924 59.6854 33.6918C59.5552 33.4942 59.5552 33.4942 59.4223 33.2926C58.8743 32.3396 58.7419 31.4741 58.6523 30.3926C57.8365 30.4093 57.0208 30.4282 56.205 30.449C55.9278 30.4558 55.6507 30.462 55.3735 30.4676C54.9737 30.4758 54.574 30.4861 54.1743 30.4968C54.0515 30.4988 53.9287 30.5009 53.8022 30.503C53.0471 30.5257 52.3855 30.5542 51.7207 30.9258C51.3996 31.9225 51.3115 32.8384 51.3086 33.8796C51.3068 34.0254 51.305 34.1713 51.3032 34.3215C51.2977 34.7985 51.2947 35.2754 51.2916 35.7524C51.2883 36.0851 51.2848 36.4178 51.2812 36.7505C51.2721 37.6224 51.2651 38.4943 51.2584 39.3662C51.25 40.4143 51.2391 41.4624 51.2286 42.5106C51.213 44.0995 51.2005 45.6884 51.1875 47.2774C53.6509 47.2774 56.1143 47.2774 58.6523 47.2774C58.6313 45.98 58.6313 45.98 58.6043 44.6828C58.5898 42.9049 58.5898 42.9049 59.1855 42.1231C60.1557 41.4744 61.0637 41.5142 62.1885 41.5209C62.3816 41.5199 62.5748 41.519 62.7739 41.5181C63.4116 41.5157 64.0493 41.5173 64.687 41.5191C65.1315 41.5187 65.576 41.5182 66.0205 41.5175C66.9522 41.5167 67.8839 41.5178 68.8156 41.5204C69.7703 41.5229 70.7249 41.5229 71.6796 41.5204C72.8344 41.5173 73.9892 41.5168 75.144 41.5185C75.5831 41.5189 76.0221 41.5185 76.4611 41.5172C77.0766 41.5158 77.692 41.5179 78.3074 41.5209C78.577 41.5193 78.577 41.5193 78.8521 41.5176C80.6989 41.534 82.2897 41.9817 83.7129 43.1895C85.1519 44.7071 85.3947 46.2556 85.3896 48.2792C85.3905 48.4921 85.3914 48.7049 85.3924 48.9242C85.3935 49.3722 85.3933 49.8202 85.3918 50.2682C85.3903 50.9539 85.3954 51.6394 85.401 52.3251C85.4013 52.7612 85.4012 53.1973 85.4007 53.6335C85.4027 53.8382 85.4047 54.043 85.4067 54.254C85.3944 55.6711 85.3943 55.6711 84.9737 56.3778C84.4231 56.8505 84.1233 56.8977 83.4123 56.9012C83.1485 56.9031 83.1485 56.9031 82.8794 56.905C82.6857 56.9055 82.492 56.906 82.2924 56.9065C82.0889 56.9077 81.8854 56.9088 81.6758 56.91C80.9996 56.9135 80.3234 56.9156 79.6472 56.9174C79.301 56.9185 79.301 56.9185 78.9478 56.9196C77.8515 56.9229 76.7553 56.9255 75.659 56.927C74.3962 56.9287 73.1335 56.9334 71.8708 56.9406C70.8934 56.9459 69.916 56.9486 68.9386 56.9492C68.3556 56.9496 67.7727 56.9515 67.1897 56.9556C66.5376 56.96 65.8855 56.9598 65.2334 56.9586C64.9471 56.962 64.9471 56.962 64.6551 56.9655C62.941 56.9537 61.4849 56.5023 60.2207 55.3074C59.1489 54.0267 58.8359 52.8398 58.6523 51.1875C56.1889 51.1875 53.7255 51.1875 51.1875 51.1875C51.2088 53.4905 51.2088 53.4905 51.2333 55.7934C51.244 56.7333 51.2544 57.6733 51.2625 58.6133C51.2691 59.3716 51.2773 60.1299 51.2867 60.8882C51.29 61.1767 51.2927 61.4652 51.2947 61.7538C51.2978 62.1596 51.3029 62.5653 51.3086 62.9711C51.3109 63.2016 51.3133 63.4321 51.3157 63.6696C51.3713 64.4215 51.4928 65.043 51.7207 65.7618C52.4845 66.1887 53.3145 66.1764 54.1743 66.1908C54.3673 66.196 54.3673 66.196 54.5642 66.2012C54.9716 66.2118 55.3789 66.2201 55.7864 66.2283C56.0641 66.2351 56.3418 66.242 56.6195 66.2491C57.2971 66.2661 57.9747 66.2811 58.6523 66.295C58.6495 66.1767 58.6468 66.0585 58.6439 65.9366C58.6327 65.397 58.6258 64.8574 58.619 64.3177C58.6145 64.1316 58.6101 63.9456 58.6055 63.7539C58.5884 61.9516 58.5884 61.9516 59.1855 61.1407C60.0366 60.4188 60.9924 60.5299 62.0502 60.5328C62.2497 60.5313 62.4492 60.5298 62.6548 60.5283C63.3149 60.5241 63.9748 60.5239 64.6349 60.5241C65.0948 60.5229 65.5546 60.5215 66.0144 60.52C66.9792 60.5176 67.9439 60.5173 68.9086 60.5184C70.0191 60.5196 71.1295 60.5155 72.2399 60.5089C73.3124 60.5028 74.3848 60.5016 75.4573 60.5024C75.9114 60.5021 76.3655 60.5004 76.8197 60.4972C77.4573 60.4932 78.0946 60.495 78.7322 60.4981C78.9176 60.4957 79.103 60.4934 79.294 60.491C80.9889 60.5101 82.5119 61.0001 83.7906 62.1404C85.1391 63.6412 85.4478 65.2455 85.4305 67.21C85.4314 67.4261 85.4322 67.6421 85.4331 67.8647C85.4337 68.3179 85.4321 68.771 85.4283 69.2242C85.4236 69.9181 85.4283 70.6116 85.434 71.3055C85.4334 71.7473 85.4323 72.1891 85.4305 72.6309C85.4323 72.8379 85.4341 73.0449 85.436 73.2582C85.4128 74.8502 85.4128 74.8502 84.883 75.3966C84.2742 75.8186 83.9804 75.9151 83.2505 75.92C83.0781 75.9215 82.9057 75.923 82.7281 75.9246C82.4434 75.9257 82.4434 75.9257 82.1529 75.9269C81.9535 75.9283 81.754 75.9298 81.5485 75.9313C80.8856 75.9357 80.2227 75.9386 79.5597 75.9412C79.3333 75.9422 79.1069 75.9431 78.8736 75.9441C77.9209 75.9479 76.9683 75.9513 76.0157 75.9532C74.6541 75.9561 73.2926 75.962 71.9311 75.9722C70.8561 75.9799 69.7811 75.9827 68.7061 75.9838C68.2504 75.985 67.7948 75.9877 67.3392 75.992C66.699 75.9976 66.059 75.9976 65.4188 75.9963C65.2326 75.9992 65.0464 76.0021 64.8545 76.0051C63.0938 75.9905 61.5876 75.455 60.2519 74.293C59.9444 73.9049 59.9444 73.9049 59.6854 73.5043C59.5552 73.3067 59.5552 73.3067 59.4223 73.1051C59.0131 72.3936 58.8151 71.7888 58.7314 70.9741C58.7163 70.8301 58.7012 70.686 58.6857 70.5377C58.6747 70.4279 58.6637 70.3182 58.6523 70.2051C58.4589 70.2098 58.2655 70.2144 58.0662 70.2192C57.3388 70.2355 56.6114 70.2456 55.8839 70.2539C55.5709 70.2584 55.2579 70.2644 54.9449 70.2722C52.605 70.3287 50.7347 70.1998 48.877 68.6055C48.5694 68.2174 48.5694 68.2174 48.3104 67.8168C48.1802 67.6192 48.1802 67.6192 48.0473 67.4176C47.353 66.2101 47.2502 65.0298 47.2572 63.6571C47.2571 63.5218 47.2571 63.3864 47.2571 63.2469C47.2572 62.8026 47.2586 62.3584 47.26 61.9141C47.2603 61.6048 47.2606 61.2955 47.2607 60.9862C47.2614 60.1745 47.2632 59.3628 47.2651 58.5511C47.2673 57.5759 47.2681 56.6008 47.2691 55.6256C47.2708 54.1462 47.2743 52.6669 47.2773 51.1875C44.1688 51.1875 41.0602 51.1875 37.8574 51.1875C37.8574 49.8972 37.8574 48.6068 37.8574 47.2774C40.966 47.2774 44.0746 47.2774 47.2773 47.2774C47.2732 46.1669 47.2691 45.0564 47.2648 43.9122C47.263 43.2067 47.2613 42.5012 47.26 41.7957C47.2579 40.6771 47.2554 39.5585 47.2505 38.4398C47.2466 37.5375 47.2445 36.6352 47.2436 35.7328C47.243 35.3894 47.2417 35.0459 47.2398 34.7025C47.2372 34.2197 47.2368 33.7369 47.237 33.2541C47.2357 33.1136 47.2344 32.9731 47.2331 32.8284C47.24 30.9444 47.7032 29.5662 48.9325 28.1376C50.335 26.9308 51.6351 26.4239 53.48 26.4477C53.7026 26.4485 53.7026 26.4485 53.9297 26.4493C54.4005 26.4512 54.8712 26.4557 55.342 26.4602C55.6626 26.462 55.9831 26.4636 56.3036 26.4651C57.0865 26.469 57.8694 26.4751 58.6523 26.4825C58.6495 26.3642 58.6468 26.246 58.6439 26.1241C58.6327 25.5845 58.6258 25.0449 58.619 24.5052C58.6145 24.3191 58.6101 24.1331 58.6055 23.9414C58.5884 22.1391 58.5884 22.1391 59.1855 21.3282C60.0366 20.6063 60.9924 20.7174 62.0502 20.7203ZM62.5625 24.7051C62.5537 25.4703 62.5472 26.2354 62.543 27.0006C62.5412 27.2605 62.5388 27.5205 62.5357 27.7804C62.5313 28.1554 62.5293 28.5304 62.5278 28.9055C62.5259 29.1307 62.5241 29.356 62.5221 29.588C62.5759 30.4231 62.7211 31.0463 63.2623 31.6923C63.789 32.1232 64.2227 32.1922 64.8807 32.1913C65.0265 32.1916 65.1723 32.1918 65.3225 32.1921C65.4818 32.1914 65.6411 32.1908 65.8052 32.1901C65.9735 32.1902 66.1417 32.1902 66.315 32.1902C66.8718 32.1901 67.4287 32.1887 67.9855 32.1873C68.3712 32.187 68.757 32.1867 69.1428 32.1866C70.1587 32.1859 71.1747 32.1841 72.1906 32.1822C73.2271 32.1803 74.2635 32.1795 75.3 32.1786C77.3341 32.1767 79.3682 32.1737 81.4023 32.17C81.4244 31.3036 81.4405 30.4374 81.4512 29.5708C81.4556 29.2763 81.4617 28.9819 81.4694 28.6875C81.4802 28.263 81.4852 27.8388 81.4891 27.4142C81.4937 27.2836 81.4983 27.153 81.503 27.0185C81.5034 26.3308 81.414 25.8728 80.997 25.3356C80.3625 24.7413 79.9086 24.6826 79.0627 24.6837C78.9167 24.6835 78.7707 24.6833 78.6202 24.683C78.4615 24.6836 78.3029 24.6843 78.1394 24.6849C77.9712 24.6849 77.8029 24.6849 77.6295 24.6849C77.0737 24.685 76.5178 24.6864 75.962 24.6878C75.5765 24.6881 75.191 24.6883 74.8055 24.6885C73.791 24.6892 72.7765 24.6909 71.762 24.6929C70.7267 24.6947 69.6914 24.6955 68.6561 24.6964C66.6249 24.6983 64.5937 24.7014 62.5625 24.7051ZM62.5625 45.5C62.5492 46.2872 62.5396 47.0744 62.5332 47.8617C62.5305 48.129 62.5269 48.3964 62.5223 48.6637C62.5157 49.0498 62.5128 49.4358 62.5104 49.8219C62.5076 50.0537 62.5048 50.2854 62.502 50.5242C62.5853 51.4373 62.778 52.1404 63.4671 52.7723C64.2121 53.0497 64.8953 53.0349 65.6842 53.0254C65.8542 53.0255 66.0242 53.0256 66.1994 53.0256C66.7601 53.0253 67.3207 53.0211 67.8813 53.0169C68.2706 53.016 68.6598 53.0152 69.0491 53.0147C70.0726 53.0126 71.0962 53.0074 72.1197 53.0015C73.1645 52.996 74.2094 52.9936 75.2542 52.9909C77.3036 52.9852 79.353 52.9761 81.4023 52.9649C81.4156 52.1205 81.4252 51.2763 81.4316 50.4319C81.4343 50.1448 81.4379 49.8578 81.4426 49.5708C81.4491 49.1574 81.4521 48.744 81.4544 48.3306C81.4572 48.203 81.4599 48.0754 81.4627 47.9439C81.463 47.154 81.3956 46.6346 80.8691 46.0332C79.8871 45.4634 79.035 45.4257 77.9175 45.4395C77.6676 45.4394 77.6676 45.4394 77.4126 45.4393C76.8654 45.4396 76.3183 45.4438 75.7711 45.448C75.3903 45.449 75.0095 45.4497 74.6288 45.4502C73.6292 45.4523 72.6296 45.4575 71.63 45.4634C70.609 45.4689 69.588 45.4713 68.5669 45.474C66.5654 45.4797 64.564 45.4888 62.5625 45.5ZM62.5625 64.5176C62.5537 65.2828 62.5472 66.0479 62.543 66.8131C62.5412 67.073 62.5388 67.333 62.5357 67.5929C62.5313 67.9679 62.5293 68.3429 62.5278 68.718C62.5259 68.9432 62.5241 69.1685 62.5221 69.4005C62.5759 70.2356 62.7211 70.8588 63.2623 71.5048C63.789 71.9357 64.2227 72.0047 64.8807 72.0038C65.0265 72.0041 65.1723 72.0043 65.3225 72.0046C65.4818 72.0039 65.6411 72.0033 65.8052 72.0026C65.9735 72.0027 66.1417 72.0027 66.315 72.0027C66.8718 72.0026 67.4287 72.0012 67.9855 71.9998C68.3712 71.9995 68.757 71.9992 69.1428 71.999C70.1587 71.9984 71.1747 71.9966 72.1906 71.9947C73.2271 71.9928 74.2635 71.992 75.3 71.9911C77.3341 71.9892 79.3682 71.9862 81.4023 71.9825C81.4244 71.1161 81.4405 70.2499 81.4512 69.3833C81.4556 69.0888 81.4617 68.7944 81.4694 68.5C81.4802 68.0755 81.4852 67.6513 81.4891 67.2267C81.4937 67.0961 81.4983 66.9655 81.503 66.831C81.5034 66.1433 81.414 65.6853 80.997 65.1481C80.3625 64.5538 79.9086 64.4951 79.0627 64.4962C78.9167 64.496 78.7707 64.4957 78.6202 64.4955C78.4615 64.4961 78.3029 64.4968 78.1394 64.4974C77.9712 64.4974 77.8029 64.4974 77.6295 64.4974C77.0737 64.4975 76.5178 64.4989 75.962 64.5003C75.5765 64.5006 75.191 64.5008 74.8055 64.501C73.791 64.5017 72.7765 64.5034 71.762 64.5054C70.7267 64.5072 69.6914 64.508 68.6561 64.5089C66.6249 64.5108 64.5937 64.5139 62.5625 64.5176Z" fill="black"/>
<path id="Vector_2" d="M22.6691 -0.0456833C22.8358 -0.0468295 23.0024 -0.0479757 23.1741 -0.0491566C23.3574 -0.0486062 23.5408 -0.0480557 23.7298 -0.0474885C23.9243 -0.0482939 24.1189 -0.0490992 24.3193 -0.0499289C24.9747 -0.0521884 25.63 -0.0518874 26.2853 -0.0515945C26.7539 -0.0526576 27.2224 -0.0538568 27.6909 -0.0552123C28.8336 -0.0581677 29.9764 -0.0591421 31.1192 -0.0593402C32.0483 -0.059509 32.9775 -0.0602391 33.9066 -0.0613666C36.5411 -0.0644983 39.1755 -0.0661366 41.81 -0.0658702C41.9521 -0.065856 42.0942 -0.0658418 42.2406 -0.0658271C42.3828 -0.0658126 42.5251 -0.0657981 42.6717 -0.0657831C44.9755 -0.0656387 47.2794 -0.0690374 49.5832 -0.0740521C51.949 -0.0791609 54.3147 -0.0816128 56.6805 -0.0813059C58.0086 -0.081188 59.3367 -0.0821614 60.6648 -0.0859903C61.796 -0.0892307 62.9272 -0.0899969 64.0585 -0.0875865C64.6353 -0.0864276 65.2122 -0.0867872 65.789 -0.0894894C66.4154 -0.0922333 67.0417 -0.0905829 67.6681 -0.0878433C67.9396 -0.0905858 67.9396 -0.0905858 68.2166 -0.0933838C69.8366 -0.0777502 71.3245 0.471186 72.5157 1.59965C73.5126 2.84013 73.9835 3.95382 73.9779 5.56145C73.9779 5.68642 73.978 5.81139 73.978 5.94015C73.9778 6.34983 73.975 6.75945 73.9722 7.16913C73.9716 7.45451 73.9711 7.73989 73.9707 8.02528C73.9694 8.77388 73.9659 9.52245 73.9619 10.271C73.9583 11.0359 73.9567 11.8008 73.9549 12.5657C73.9511 14.0647 73.9448 15.5636 73.9375 17.0625C72.6472 17.0625 71.3568 17.0625 70.0274 17.0625C70.0257 16.7065 70.0241 16.3504 70.0223 15.9835C70.0163 14.8059 70.0065 13.6283 69.9947 12.4507C69.9877 11.7368 69.9819 11.023 69.9792 10.3091C69.9765 9.61992 69.9704 8.93083 69.9619 8.24169C69.9593 7.97902 69.9579 7.71633 69.9577 7.45365C69.9573 7.0851 69.9525 6.71686 69.9467 6.34836C69.9451 6.13879 69.9435 5.92921 69.9419 5.71329C69.8313 5.04318 69.6085 4.74708 69.1387 4.26567C68.7315 4.06206 68.5038 4.06489 68.0511 4.06329C67.8969 4.06231 67.7426 4.06134 67.5837 4.06034C67.4132 4.06017 67.2427 4.05999 67.0671 4.05981C66.8868 4.05893 66.7065 4.05806 66.5207 4.05715C65.9127 4.05441 65.3047 4.05293 64.6966 4.05144C64.2623 4.04974 63.828 4.04796 63.3937 4.04611C62.4567 4.04229 61.5196 4.03901 60.5826 4.03623C59.2277 4.03219 57.8729 4.02719 56.5181 4.02195C54.3201 4.01347 52.1222 4.00578 49.9242 3.99859C47.7887 3.9916 45.6532 3.98423 43.5178 3.97637C43.3862 3.97589 43.2546 3.9754 43.1191 3.9749C42.4591 3.97247 41.799 3.97003 41.139 3.96759C35.661 3.94733 30.1831 3.92836 24.7051 3.9102C24.7067 4.04025 24.7082 4.1703 24.7099 4.30428C24.7242 5.5357 24.735 6.7671 24.7419 7.99858C24.7456 8.63156 24.7506 9.26447 24.7587 9.89741C24.768 10.6267 24.7714 11.3559 24.7745 12.0853C24.7782 12.3103 24.7818 12.5353 24.7856 12.7671C24.786 14.0676 24.6524 15.0428 23.9941 16.1739C23.9128 16.3157 23.8315 16.4575 23.7477 16.6036C22.8418 17.8359 21.7306 18.5926 20.2617 19.0176C19.7286 19.0604 19.7286 19.0604 19.1617 19.058C18.9483 19.0579 18.7349 19.0579 18.515 19.0579C18.1734 19.0551 18.1734 19.0551 17.8248 19.0523C17.5872 19.0517 17.3497 19.0512 17.1121 19.0508C16.4897 19.0495 15.8674 19.046 15.245 19.042C14.6088 19.0384 13.9726 19.0368 13.3363 19.035C12.0901 19.0312 10.8439 19.0251 9.59765 19.0176C9.60404 27.516 9.61416 36.0144 9.62927 44.5128C9.63105 45.5155 9.6328 46.5182 9.63453 47.5209C9.63488 47.7205 9.63522 47.9201 9.63558 48.1258C9.6411 51.3605 9.64411 54.5953 9.64621 57.83C9.64841 61.1477 9.65329 64.4655 9.66068 67.7832C9.66515 69.8313 9.66752 71.8795 9.66722 73.9277C9.66722 75.331 9.66981 76.7344 9.67446 78.1378C9.67707 78.9482 9.67852 79.7586 9.67689 80.569C9.67542 81.3105 9.6772 82.0519 9.6816 82.7933C9.68262 83.062 9.68242 83.3306 9.68092 83.5993C9.67906 83.9638 9.68197 84.3283 9.68513 84.6927C9.6854 84.8954 9.68567 85.0981 9.68595 85.3069C9.79512 85.9647 10.0265 86.2606 10.4863 86.7344C10.9452 86.9638 11.2739 86.9351 11.7879 86.936C12.0909 86.9372 12.0909 86.9372 12.4 86.9384C12.6238 86.9384 12.8477 86.9383 13.0782 86.9383C13.3169 86.9389 13.5556 86.9396 13.7943 86.9403C14.4524 86.9421 15.1105 86.9427 15.7686 86.9432C16.4775 86.9439 17.1864 86.9456 17.8953 86.9472C19.6083 86.9507 21.3213 86.9525 23.0343 86.954C23.8405 86.9548 24.6466 86.9558 25.4527 86.9567C28.1314 86.9597 30.8101 86.9623 33.4888 86.9636C34.1842 86.9639 34.8796 86.9643 35.575 86.9646C35.8343 86.9647 35.8343 86.9647 36.0988 86.9649C38.9003 86.9664 41.7017 86.9709 44.5031 86.9766C47.3774 86.9825 50.2516 86.9857 53.1259 86.9863C54.7405 86.9867 56.355 86.9882 57.9696 86.9928C59.3444 86.9966 60.7191 86.998 62.0938 86.9963C62.7955 86.9955 63.4972 86.9959 64.1988 86.9993C64.841 87.0024 65.4831 87.0023 66.1252 86.9995C66.468 86.9989 66.8109 87.0018 67.1537 87.0048C67.4587 87.0025 67.4587 87.0025 67.77 87.0001C68.0332 87.0004 68.0332 87.0004 68.3017 87.0007C68.9201 86.887 69.2206 86.6296 69.6719 86.2012C69.9483 85.6485 69.8924 85.0578 69.9059 84.4503C69.9114 84.2439 69.9114 84.2439 69.9171 84.0334C69.9287 83.5933 69.9392 83.1533 69.9496 82.7132C69.9573 82.4151 69.965 82.117 69.9729 81.819C69.9921 81.0877 70.0097 80.3564 70.0274 79.625C71.3177 79.625 72.6081 79.625 73.9375 79.625C73.9539 80.6084 73.9681 81.5913 73.9766 82.5746C73.9801 82.9085 73.985 83.2424 73.9912 83.5763C73.9999 84.0586 74.0038 84.5407 74.007 85.023C74.0125 85.2439 74.0125 85.2439 74.0181 85.4693C74.0187 86.9988 73.3953 88.4621 72.3379 89.5782C71.1962 90.4958 70.1003 91.0437 68.6125 91.0458C68.4033 91.0469 68.1942 91.0481 67.9787 91.0492C67.7505 91.0487 67.5224 91.0481 67.2873 91.0476C67.0412 91.0482 66.7951 91.0491 66.5489 91.05C65.8736 91.0522 65.1982 91.0521 64.5228 91.0517C63.794 91.0517 63.0652 91.0536 62.3365 91.0553C60.909 91.0583 59.4816 91.0592 58.0541 91.0594C56.8937 91.0596 55.7334 91.0603 54.573 91.0615C51.2827 91.0646 47.9924 91.0662 44.7022 91.066C44.5248 91.0659 44.3474 91.0659 44.1647 91.0659C43.9871 91.0659 43.8096 91.0659 43.6266 91.0659C40.7487 91.0657 37.8708 91.0691 34.9929 91.0741C32.0374 91.0792 29.082 91.0817 26.1266 91.0814C24.4675 91.0813 22.8084 91.0823 21.1493 91.0861C19.7368 91.0893 18.3242 91.0901 16.9117 91.0877C16.1912 91.0865 15.4707 91.0865 14.7502 91.0896C14.0901 91.0924 13.43 91.0919 12.7699 91.0888C12.4191 91.088 12.0684 91.0906 11.7177 91.0935C10.4352 91.0835 9.46856 90.937 8.35351 90.2891C8.23735 90.2219 8.12118 90.1546 8.0015 90.0854C6.77375 89.3365 6.07425 88.088 5.68749 86.7344C5.6415 86.1516 5.6415 86.1516 5.63928 85.5062C5.63839 85.3864 5.63751 85.2665 5.63659 85.1431C5.63405 84.7418 5.63402 84.3406 5.63398 83.9394C5.63268 83.6487 5.63123 83.358 5.62964 83.0673C5.62574 82.2686 5.62407 81.47 5.62279 80.6713C5.62103 79.8099 5.61727 78.9484 5.61381 78.087C5.60595 76.0071 5.60155 73.9271 5.59767 71.8472C5.59617 71.0639 5.59446 70.2806 5.59276 69.4973C5.58526 66.0446 5.57888 62.5918 5.57542 59.1391C5.57456 58.2943 5.57369 57.4496 5.57281 56.6049C5.57259 56.3949 5.57237 56.185 5.57214 55.9687C5.56842 52.5662 5.55801 49.1638 5.54483 45.7613C5.53142 42.2678 5.52403 38.7744 5.52253 35.2808C5.52154 33.3194 5.51789 31.3581 5.5075 29.3967C5.49867 27.7267 5.49528 26.0568 5.499 24.3867C5.50073 23.5347 5.49987 22.683 5.49203 21.831C5.4849 21.0505 5.4852 20.2704 5.49133 19.4899C5.49225 19.2081 5.49049 18.9263 5.48571 18.6445C5.46382 17.2689 5.49861 16.2267 6.45435 15.1514C6.72709 14.8945 7.00453 14.6425 7.2871 14.3965C7.52953 14.1502 7.77044 13.9023 8.00893 13.6521C8.25523 13.4048 8.50199 13.1579 8.74916 12.9115C8.88549 12.7748 9.02181 12.6382 9.16227 12.4974C9.60642 12.0525 10.0512 11.6082 10.496 11.164C10.8073 10.8526 11.1185 10.5412 11.4298 10.2297C12.0787 9.58055 12.728 8.93166 13.3775 8.283C14.2106 7.45088 15.0429 6.61795 15.875 5.78478C16.516 5.14317 17.1574 4.50198 17.7989 3.86092C18.1062 3.55378 18.4133 3.24651 18.7203 2.93911C19.1478 2.51117 19.5758 2.0838 20.0041 1.65658C20.1944 1.46575 20.1944 1.46575 20.3885 1.27106C20.5051 1.15499 20.6216 1.03893 20.7417 0.919349C20.8932 0.767988 20.8932 0.767988 21.0477 0.61357C21.5953 0.10965 21.9426 -0.0444215 22.6691 -0.0456833ZM19.8465 7.50164C19.6828 7.66475 19.5192 7.82786 19.3505 7.99592C19.1708 8.17597 18.9911 8.35605 18.8114 8.53615C18.6284 8.71906 18.4453 8.90193 18.2622 9.08478C17.8781 9.46865 17.4943 9.85284 17.1107 10.2373C16.6178 10.7312 16.1241 11.2243 15.6302 11.7172C15.2519 12.0948 14.874 12.4729 14.4963 12.8511C14.3143 13.0331 14.1323 13.215 13.9501 13.3968C13.696 13.6505 13.4425 13.9047 13.1891 14.159C13.0444 14.3039 12.8997 14.4487 12.7506 14.598C12.4212 14.8758 12.4212 14.8758 12.4414 15.1075C13.3837 15.1207 14.326 15.1303 15.2684 15.1368C15.5887 15.1394 15.909 15.1431 16.2293 15.1477C16.6908 15.1542 17.1522 15.1572 17.6138 15.1595C17.756 15.1623 17.8982 15.165 18.0448 15.1679C18.9094 15.1681 19.5323 15.089 20.2617 14.5743C20.8672 13.7162 20.8665 12.9354 20.847 11.9263C20.8459 11.7037 20.8459 11.7037 20.8447 11.4766C20.8417 11.0058 20.835 10.5351 20.8282 10.0643C20.8256 9.74373 20.8231 9.42321 20.821 9.10268C20.8151 8.31972 20.8059 7.53686 20.7949 6.75395C20.4258 6.75395 20.0826 7.26582 19.8465 7.50164Z" fill="black"/>
<path id="Vector_3" d="M34.7269 22.7152C34.8722 22.7157 35.0174 22.7162 35.167 22.7167C35.6306 22.7187 36.0942 22.7232 36.5578 22.7277C36.8721 22.7295 37.1865 22.7311 37.5009 22.7326C38.2715 22.7362 39.0419 22.7432 39.8125 22.7499C39.8125 24.0403 39.8125 25.3306 39.8125 26.6601C38.5808 26.6601 37.3491 26.6601 36.0801 26.6601C36.0883 27.0347 36.0966 27.4093 36.1051 27.7952C36.1106 28.1599 36.115 28.5246 36.1191 28.8894C36.1227 29.1419 36.1276 29.3945 36.1337 29.647C36.1424 30.011 36.1464 30.3749 36.1495 30.739C36.1532 30.9577 36.157 31.1764 36.1608 31.4018C36.0638 32.1116 35.8777 32.3839 35.3692 32.8808C34.7981 33.2403 34.1794 33.4849 33.5585 33.7473C33.3164 33.8579 33.3164 33.8579 33.0694 33.9708C32.0193 34.4218 31.153 34.6547 30.0371 34.3027C29.5546 33.9979 29.5546 33.9979 29.1596 33.6028C28.9406 33.3891 28.9406 33.3891 28.7173 33.171C28.5663 33.0166 28.4153 32.8622 28.2598 32.7031C28.0909 32.5357 27.9217 32.3686 27.7523 32.2018C27.3257 31.7795 26.9028 31.3541 26.4824 30.9257C25.351 31.8579 24.3255 32.8845 23.2943 33.925C23.1202 34.1 22.9461 34.2749 22.7719 34.4499C22.3495 34.8744 21.9275 35.2993 21.5059 35.7246C21.7512 36.2785 22.0334 36.648 22.4667 37.0694C22.5843 37.1849 22.7018 37.3005 22.8229 37.4196C22.9455 37.5384 23.0681 37.6572 23.1943 37.7796C23.4373 38.0164 23.6798 38.2536 23.9219 38.4912C24.0295 38.5956 24.1371 38.7 24.2479 38.8075C24.9184 39.5129 24.9556 39.9968 24.9358 40.9248C24.8476 41.736 24.5578 42.427 24.2274 43.1672C24.1671 43.3143 24.1067 43.4614 24.0445 43.6129C23.6777 44.463 23.3814 44.9933 22.5723 45.4999C21.9656 45.5807 21.9656 45.5807 21.2802 45.5694C21.0587 45.5676 20.8372 45.5658 20.609 45.564C20.1897 45.5543 20.1897 45.5543 19.7619 45.5444C18.4257 45.5224 18.4257 45.5224 17.0625 45.4999C17.0625 47.9633 17.0625 50.4267 17.0625 52.9648C18.6523 52.9438 18.6523 52.9438 20.242 52.9168C20.5411 52.9148 20.5411 52.9148 20.8463 52.9127C21.1507 52.9085 21.1507 52.9085 21.4612 52.9043C22.1217 52.9734 22.5403 53.1541 23.1055 53.498C24.1209 54.7764 25.1382 56.9255 25.0196 58.5947C24.7147 59.5156 23.9694 60.1321 23.2832 60.7851C23.1153 60.9534 22.948 61.1224 22.7813 61.2919C22.3595 61.7191 21.9343 62.1421 21.5059 62.5624C21.7941 63.2914 22.3193 63.7766 22.868 64.3148C23.0152 64.4612 23.0152 64.4612 23.1654 64.6106C23.4778 64.9211 23.7915 65.2303 24.1052 65.5395C24.3178 65.7502 24.5302 65.9611 24.7426 66.172C25.2624 66.6879 25.7832 67.2026 26.3047 67.7167C27.2332 66.9444 28.0861 66.1256 28.9218 65.2548C29.5979 64.5639 30.0383 64.2146 30.9924 64.0732C32.1631 64.0974 33.2671 64.7347 34.3027 65.2285C34.4892 65.3098 34.6757 65.3911 34.8679 65.4749C35.4512 65.8086 35.7137 66.0873 36.0801 66.6503C36.1608 67.2407 36.1608 67.2407 36.1495 67.9035C36.1485 68.0206 36.1475 68.1377 36.1465 68.2583C36.1425 68.6297 36.1336 69.0007 36.1245 69.3719C36.121 69.6247 36.1177 69.8776 36.1148 70.1304C36.1076 70.7479 36.0937 71.3648 36.0801 71.9824C37.3118 71.9824 38.5435 71.9824 39.8125 71.9824C39.8125 73.2727 39.8125 74.5631 39.8125 75.8925C38.9205 75.913 38.0294 75.9307 37.1374 75.9413C36.8343 75.9458 36.5312 75.9519 36.2282 75.9596C35.7914 75.9704 35.3548 75.9754 34.9179 75.9793C34.7162 75.9862 34.7162 75.9862 34.5104 75.9932C33.7938 75.9936 33.364 75.9232 32.798 75.465C32.108 74.7584 32.1457 74.2738 32.1526 73.3307C32.1528 73.201 32.1531 73.0713 32.1533 72.9377C32.1543 72.523 32.1566 72.1083 32.1588 71.6936C32.1597 71.4126 32.1605 71.1317 32.1613 70.8507C32.1632 70.1615 32.1663 69.4723 32.1699 68.7832C31.5759 68.7107 31.3475 68.732 30.8653 69.1038C30.7256 69.2505 30.5859 69.3971 30.4419 69.5482C30.2104 69.7864 30.2104 69.7864 29.9743 70.0294C29.736 70.2813 29.736 70.2813 29.4928 70.5383C29.1768 70.8681 28.86 71.1973 28.5423 71.5255C28.4028 71.6726 28.2633 71.8197 28.1195 71.9712C27.5527 72.5001 27.1858 72.6744 26.4158 72.76C25.3178 72.6464 24.616 71.9376 23.8555 71.1816C23.6966 71.0244 23.5377 70.8672 23.374 70.7052C23.2039 70.5351 23.0338 70.3649 22.8639 70.1946C22.687 70.0184 22.51 69.8422 22.333 69.6661C21.9638 69.2981 21.5952 68.9295 21.227 68.5604C20.756 68.0884 20.283 67.6184 19.8094 67.1489C19.4441 66.7862 19.08 66.4222 18.7162 66.0579C18.5423 65.8841 18.368 65.7107 18.1932 65.5378C17.9491 65.2958 17.7068 65.052 17.4647 64.8081C17.3266 64.6702 17.1885 64.5322 17.0462 64.39C16.535 63.7785 16.3555 63.3013 16.3405 62.5069C16.6826 61.3194 17.5843 60.6108 18.4552 59.7715C18.5765 59.6534 18.6978 59.5352 18.8228 59.4136C19.0697 59.1741 19.3187 58.9368 19.57 58.7019C19.6846 58.5912 19.7993 58.4804 19.9174 58.3662C20.0221 58.2673 20.1268 58.1684 20.2347 58.0665C20.4852 57.7691 20.4852 57.7691 20.3832 57.3705C20.3431 57.2656 20.303 57.1607 20.2617 57.0527C20.0896 57.052 19.9175 57.0512 19.7402 57.0505C19.0982 57.0466 18.4564 57.0369 17.8144 57.0256C17.5372 57.0215 17.26 57.0189 16.9828 57.0179C16.5829 57.0163 16.1835 57.009 15.7837 57.0006C15.6609 57.0013 15.5381 57.002 15.4116 57.0027C14.4157 56.9731 13.9937 56.6837 13.3301 55.9863C13.1024 55.3716 13.1275 54.7517 13.1237 54.1021C13.1228 53.9858 13.1219 53.8696 13.121 53.7498C13.1185 53.3664 13.1172 52.983 13.1162 52.5996C13.1152 52.3322 13.1142 52.0648 13.1132 51.7974C13.1113 51.2371 13.1103 50.6769 13.1097 50.1166C13.1087 49.4002 13.1044 48.6839 13.0994 47.9676C13.096 47.4153 13.0951 46.863 13.0948 46.3107C13.0943 46.0467 13.0929 45.7827 13.0905 45.5187C13.0875 45.1486 13.0878 44.7787 13.089 44.4086C13.088 44.0933 13.088 44.0933 13.087 43.7717C13.1611 43.1117 13.3397 42.6872 13.6856 42.123C14.4865 41.5749 15.1442 41.5262 16.1002 41.5377C16.225 41.5385 16.3497 41.5392 16.4782 41.54C16.873 41.543 17.2676 41.5497 17.6624 41.5565C17.9315 41.5591 18.2007 41.5616 18.4698 41.5638C19.1264 41.5696 19.7829 41.5788 20.4395 41.5898C20.3558 40.7687 20.0697 40.4295 19.4793 39.868C19.3211 39.7145 19.1629 39.561 18.9999 39.4028C18.7502 39.1657 18.7502 39.1657 18.4955 38.9238C18.1668 38.6103 17.8393 38.2956 17.5131 37.9796C17.3672 37.8409 17.2212 37.7023 17.0709 37.5595C16.5333 36.9491 16.3557 36.4786 16.3405 35.669C16.7841 34.1292 18.4077 32.9314 19.5154 31.8262C19.6785 31.6629 19.8416 31.4997 20.0096 31.3315C20.3518 30.989 20.6943 30.6468 21.0371 30.3049C21.4766 29.8665 21.9152 29.4272 22.3537 28.9877C22.7735 28.5671 23.194 28.1472 23.6144 27.7272C23.7719 27.5693 23.9295 27.4114 24.0918 27.2487C24.2372 27.1038 24.3826 26.959 24.5324 26.8098C24.7245 26.6179 24.7245 26.6179 24.9205 26.4221C25.4957 25.8877 26.0025 25.8526 26.7657 25.8707C27.596 26.023 28.0493 26.6011 28.6152 27.1933C28.9495 27.5416 29.2847 27.8889 29.6219 28.2343C29.8595 28.4786 30.0947 28.7252 30.3274 28.9742C30.4376 29.0882 30.5478 29.2023 30.6613 29.3199C30.7593 29.4236 30.8573 29.5274 30.9582 29.6343C31.3795 29.9277 31.6679 29.901 32.1699 29.8593C32.1671 29.6863 32.1644 29.5133 32.1615 29.335C32.1518 28.6908 32.1457 28.0465 32.1406 27.4022C32.138 27.1238 32.1343 26.8454 32.1297 26.567C32.1232 26.166 32.1202 25.765 32.1179 25.3639C32.1151 25.2402 32.1124 25.1165 32.1095 24.989C32.1093 24.2087 32.2218 23.7235 32.7031 23.1054C33.3851 22.6508 33.9376 22.705 34.7269 22.7152Z" fill="black"/>
<path id="Vector_4" d="M38.0352 37.8574C38.0352 39.1478 38.0352 40.4381 38.0352 41.7676C37.3479 41.905 37.3479 41.905 36.6466 42.0453C34.6238 42.4974 33.0135 43.4134 31.8145 45.1445C30.6663 47.0092 30.3581 48.8537 30.7481 51.0098C31.3158 52.9273 32.3218 54.5262 34.0445 55.5809C35.3875 56.2823 36.5101 56.5278 38.0352 56.6973C38.0352 58.0463 38.0352 59.3953 38.0352 60.7852C34.4679 60.6748 31.6425 59.4714 29.1485 56.875C27.0287 54.3255 26.2503 51.2917 26.4457 48.0257C26.7093 45.2113 28.0558 42.8388 30.0371 40.8789C30.175 40.7322 30.175 40.7322 30.3155 40.5825C32.3419 38.609 35.3175 37.8574 38.0352 37.8574Z" fill="black"/>
<path id="Vector_5" d="M56.875 7.46488C57.5749 7.45035 58.2745 7.43984 58.9745 7.43155C59.17 7.42708 59.3656 7.42262 59.567 7.41801C61.7771 7.39846 63.4013 7.81169 65.0008 9.36025C66.1369 10.5799 66.4984 12.0367 66.49 13.6779C66.4894 13.8755 66.4889 14.0732 66.4883 14.2768C66.486 14.5835 66.486 14.5835 66.4838 14.8964C66.483 15.1043 66.4822 15.3122 66.4813 15.5264C66.4792 16.0385 66.4761 16.5505 66.4727 17.0625C65.1823 17.0625 63.892 17.0625 62.5625 17.0625C62.507 15.2741 62.507 15.2741 62.4935 14.7179C62.4541 13.7234 62.3886 12.9375 61.8516 12.086C60.8497 11.4541 59.8236 11.4585 58.6635 11.4306C58.0733 11.4122 57.4831 11.3939 56.875 11.375C56.875 10.0847 56.875 8.79433 56.875 7.46488Z" fill="black"/>
<path id="Vector_6" d="M49.2324 7.46484C50.5228 7.46484 51.8131 7.46484 53.1426 7.46484C53.1426 8.7552 53.1426 10.0455 53.1426 11.375C51.8522 11.375 50.5619 11.375 49.2324 11.375C49.2324 10.0846 49.2324 8.7943 49.2324 7.46484Z" fill="black"/>
</g>
</g>
</g>
</g>
</g>
</g>
</g>
</g>
<defs>
<clipPath id="clip0_102_1070">
<rect width="91" height="91" fill="white"/>
</clipPath>
</defs>
</svg>
