<svg width="156" height="136" viewBox="0 0 156 136" fill="none" xmlns="http://www.w3.org/2000/svg">
<path d="M121.739 75.6646H103.761V29.6669C103.761 29.2813 103.45 28.9696 103.064 28.9696H95.5805V22.4655C95.5805 22.0798 95.2689 21.7682 94.8834 21.7682H48.7258C48.3403 21.7682 48.0287 22.0798 48.0287 22.4655V75.6624H32.5457C32.1602 75.6624 31.8487 75.974 31.8487 76.3597V106.165C31.8487 109.593 34.6369 112.383 38.0639 112.383H116.212C119.643 112.383 122.434 109.593 122.434 106.165V76.3597C122.434 75.974 122.122 75.6624 121.737 75.6624L121.739 75.6646ZM94.8834 30.3664C94.8834 30.3664 94.8946 30.3642 94.8991 30.3619H102.367V75.6624H92.1244C91.7389 75.6624 91.4273 75.974 91.4273 76.3597V84.8906H62.8573V76.3597C62.8573 75.974 62.5457 75.6624 62.1602 75.6624H56.7609V30.3619H94.8655C94.8655 30.3619 94.8767 30.3664 94.8834 30.3664ZM49.4251 23.1627H94.1886V28.9696H56.0661C55.6806 28.9696 55.3691 29.2813 55.3691 29.6669V75.6646H49.4251V23.1627ZM121.042 106.165C121.042 108.824 118.877 110.988 116.214 110.988H38.0661C35.4079 110.988 33.245 108.824 33.245 106.165V77.0569H61.4654V85.5879C61.4654 85.9735 61.777 86.2852 62.1625 86.2852H92.1244C92.5099 86.2852 92.8214 85.9735 92.8214 85.5879V77.0569H121.042V106.165Z" fill="black" stroke="black" stroke-width="2" stroke-miterlimit="10"/>
<path d="M89.511 95.3521C89.1255 95.3521 88.814 95.6637 88.814 96.0493V99.8272H65.4729V96.0493C65.4729 95.6637 65.1614 95.3521 64.7758 95.3521C64.3903 95.3521 64.0788 95.6637 64.0788 96.0493V100.524C64.0788 100.91 64.3903 101.222 64.7758 101.222H89.5088C89.8943 101.222 90.2058 100.91 90.2058 100.524V96.0493C90.2058 95.6637 89.8943 95.3521 89.5088 95.3521H89.511Z" fill="black" stroke="black" stroke-width="2" stroke-miterlimit="10"/>
<path d="M63.3549 40.7717H95.78C96.1655 40.7717 96.477 40.4601 96.477 40.0745C96.477 39.6888 96.1655 39.3772 95.78 39.3772H63.3549C62.9694 39.3772 62.6578 39.6888 62.6578 40.0745C62.6578 40.4601 62.9694 40.7717 63.3549 40.7717Z" fill="black" stroke="black" stroke-width="2" stroke-miterlimit="10"/>
<path d="M63.3549 49.3992H95.78C96.1655 49.3992 96.477 49.0875 96.477 48.7019C96.477 48.3163 96.1655 48.0046 95.78 48.0046H63.3549C62.9694 48.0046 62.6578 48.3163 62.6578 48.7019C62.6578 49.0875 62.9694 49.3992 63.3549 49.3992Z" fill="black" stroke="black" stroke-width="2" stroke-miterlimit="10"/>
<path d="M63.3549 58.0265H95.78C96.1655 58.0265 96.477 57.7149 96.477 57.3292C96.477 56.9436 96.1655 56.632 95.78 56.632H63.3549C62.9694 56.632 62.6578 56.9436 62.6578 57.3292C62.6578 57.7149 62.9694 58.0265 63.3549 58.0265Z" fill="black" stroke="black" stroke-width="2" stroke-miterlimit="10"/>
<path d="M63.3549 66.6516H95.78C96.1655 66.6516 96.477 66.34 96.477 65.9544C96.477 65.5687 96.1655 65.2571 95.78 65.2571H63.3549C62.9694 65.2571 62.6578 65.5687 62.6578 65.9544C62.6578 66.34 62.9694 66.6516 63.3549 66.6516Z" fill="black" stroke="black" stroke-width="2" stroke-miterlimit="10"/>
</svg>
