<svg width="84" height="84" viewBox="0 0 84 84" fill="none" xmlns="http://www.w3.org/2000/svg">
<path d="M82.342 41.9215C83.8284 49.406 84.8817 54.7084 82.9523 60.8525C78.1075 76.276 58.1049 85.4257 41.1768 83.8179C25.5333 82.3315 15.701 71.9611 12.8184 68.9211C8.50187 64.3684 -0.364132 55.0185 0.0115738 41.9215C0.369233 29.4676 8.86773 21.1513 15.8683 14.3018C22.5211 7.79179 29.963 0.509108 41.1768 0.0251263C53.5111 -0.506433 62.4247 7.53258 66.4853 11.1977C78.3684 21.9158 81.1312 35.8299 82.342 41.9215Z" fill="#4648CC"/>
<path d="M58.8164 33.4709C58.4819 29.0932 54.7559 25.6119 50.2784 25.6119C48.3879 25.6119 46.5737 26.2291 45.0938 27.3664C42.6593 24.4958 39.0304 22.8047 35.2389 22.8047C28.0705 22.8047 22.2407 28.6177 22.2407 35.7667C22.2407 36.532 22.2957 37.2211 22.4079 37.8616C19.5012 39.7006 17.7188 42.9242 17.7188 46.4035C17.7188 51.9838 22.2661 56.5224 27.8528 56.5224H31.8539C32.2265 61.8746 36.6934 66.1169 42.1467 66.1169C47.5983 66.1169 52.0672 61.8744 52.4396 56.5224H54.6455C61.2254 56.5224 66.5772 51.1786 66.5772 44.6086C66.5793 39.6114 63.48 35.1977 58.8164 33.4709ZM42.1491 64.682C37.2461 64.682 33.2599 60.6995 33.2599 55.804C33.2599 50.9083 37.2463 46.9281 42.1491 46.9281C47.0519 46.9281 51.0382 50.9085 51.0382 55.804C51.0382 60.6997 47.0519 64.682 42.1491 64.682ZM54.6476 55.0853H52.4417C52.0713 49.7331 47.6022 45.4887 42.1489 45.4887C36.6956 45.4887 32.2284 49.7311 31.8561 55.0853H27.8549C23.0599 55.0853 19.1582 51.1895 19.1582 46.4016C19.1582 43.2667 20.8476 40.3689 23.5679 38.8402C23.8474 38.6837 23.9892 38.3624 23.9172 38.0496C23.7584 37.3774 23.6801 36.6291 23.6801 35.7624C23.6801 29.4083 28.8668 24.2376 35.2389 24.2376C38.8357 24.2376 42.2654 25.9499 44.4186 28.8205C44.5393 28.9833 44.7277 29.0868 44.9309 29.1037C45.132 29.1312 45.3331 29.0551 45.4855 28.9156C46.7918 27.7107 48.4917 27.0449 50.2806 27.0449C54.1463 27.0449 57.3406 30.1649 57.4024 33.9975C57.4067 34.3061 57.6078 34.5767 57.8999 34.6697C62.2313 36.0733 65.1421 40.0664 65.1421 44.6068C65.14 50.3862 60.4333 55.0853 54.6476 55.0853Z" fill="white"/>
<path d="M39.511 54.8427L41.429 52.8768V60.4994C41.429 60.8947 41.7508 61.2181 42.1488 61.2181C42.5468 61.2181 42.8686 60.8968 42.8686 60.4994V52.8768L44.7866 54.8427C45.066 55.1239 45.5191 55.1323 45.807 54.8554C46.0907 54.5785 46.097 54.124 45.8197 53.8365L42.6675 50.6044C42.532 50.4649 42.3457 50.3888 42.1509 50.3888C41.9561 50.3888 41.7698 50.467 41.6344 50.6044L38.4821 53.8365C38.2069 54.1219 38.2112 54.5764 38.4948 54.8554C38.7785 55.1281 39.2315 55.126 39.511 54.8427Z" fill="white"/>
</svg>
